<svg width="1920" height="1080" viewBox="0 0 1920 1080" fill="none" xmlns="http://www.w3.org/2000/svg">
<g id="landingvector" clip-path="url(#clip0_2_85)">
<g id="object">
<g id="handracket">
<path id="&#60;Compound Path&#62;" fill-rule="evenodd" clip-rule="evenodd" d="M1087.2 625.587C1201.2 596.743 1259.6 548.795 1341.5 471.814C1345.83 467.464 1350.3 463.271 1354.9 459.236L1355.3 458.858L1355.4 458.764C1408.1 412.329 1478.8 383.958 1556.5 383.958C1719.5 383.958 1851.6 508.886 1851.6 663.037C1851.6 817.187 1719.5 942.116 1556.5 942.116C1478.8 942.116 1408.1 913.744 1355.4 867.31L1355.3 867.215L1354.9 866.837C1350.3 862.802 1345.83 858.609 1341.5 854.259C1259.6 777.278 1201.2 729.331 1087.2 700.487V625.587ZM1170.7 655.471C1162.4 660.105 1158.3 661.524 1158.4 662.942C1158.3 664.455 1162.4 665.779 1170.7 670.413C1211 692.921 1248.6 719.023 1281 752.028C1291.9 762.336 1298.2 756 1291.3 744.746C1282.4 718.928 1277.6 691.503 1277.6 662.942C1277.6 634.476 1282.4 606.956 1291.3 581.233C1298.2 569.884 1291.9 563.548 1281 573.856C1248.6 606.862 1211 633.058 1170.7 655.471V655.471Z" fill="#CCFFCC"/>
<path id="&#60;Path&#62;" d="M1851.6 663.037C1851.6 817.187 1719.5 942.116 1556.5 942.116C1478.8 942.116 1408.1 913.744 1355.4 867.31L1355.3 867.215L1354.9 866.837C1350.3 862.802 1345.83 858.609 1341.5 854.259C1259.6 777.278 1201.2 729.331 1087.2 700.487V663.037H1158.4C1158.3 664.455 1162.4 665.874 1170.7 670.508C1211 693.016 1248.6 719.117 1281 752.123C1291.9 762.431 1298.2 756.095 1291.3 744.746C1282.4 719.023 1277.6 691.597 1277.6 663.037H1851.6Z" fill="#B2D9B2"/>
<path id="&#60;Compound Path&#62;_2" d="M1797.3 663.037C1797.3 788.816 1689.5 890.764 1556.5 890.764C1423.5 890.764 1315.7 788.816 1315.7 663.037C1315.7 537.257 1423.5 435.31 1556.5 435.31C1689.5 435.31 1797.3 537.257 1797.3 663.037ZM1090.5 622.939V703.135C1090.5 706.445 1087.6 709.282 1084.1 709.282H1062.1C1058.5 709.282 1055.6 706.445 1055.6 703.135V700.487H857.4C857.4 703.04 855.1 705.215 852.4 705.215H825C822.3 705.215 820 703.04 820 700.487V625.587C820 623.033 822.3 620.858 825 620.858H852.4C855.1 620.858 857.4 623.033 857.4 625.587H1055.6V622.939C1055.6 619.629 1058.5 616.792 1062.1 616.792H1084.1C1087.6 616.792 1090.5 619.629 1090.5 622.939Z" fill="#33CC66"/>
<path id="&#60;Compound Path&#62;_3" d="M1090.5 663.037V703.135C1090.5 706.445 1087.6 709.282 1084.1 709.282H1062.1C1058.5 709.282 1055.6 706.445 1055.6 703.135V700.487H857.4C857.4 703.04 855.1 705.215 852.4 705.215H825C822.3 705.215 820 703.04 820 700.487V663.037H1090.5ZM1797.2 663.037C1797.2 788.816 1689.4 890.764 1556.4 890.764C1423.5 890.764 1315.7 788.816 1315.7 663.037H1797.2Z" fill="#30A657"/>
<path id="&#60;Compound Path&#62;_4" d="M1424.1 663.037C1424.1 672.683 1415.8 680.438 1405.7 680.438C1395.5 680.438 1387.3 672.683 1387.3 663.037C1387.3 653.391 1395.5 645.636 1405.7 645.636C1415.8 645.636 1424.1 653.391 1424.1 663.037ZM1725.7 604.119C1725.7 613.671 1717.4 621.52 1707.3 621.52C1697.1 621.52 1688.9 613.671 1688.9 604.119C1688.9 594.473 1697.1 586.718 1707.3 586.718C1717.4 586.718 1725.7 594.473 1725.7 604.119ZM1665.3 604.119C1665.3 613.671 1657.1 621.52 1647 621.52C1636.8 621.52 1628.6 613.671 1628.6 604.119C1628.6 594.473 1636.8 586.718 1647 586.718C1657.1 586.718 1665.3 594.473 1665.3 604.119ZM1605 604.119C1605 613.671 1596.8 621.52 1586.6 621.52C1576.5 621.52 1568.3 613.671 1568.3 604.119C1568.3 594.473 1576.5 586.718 1586.6 586.718C1596.8 586.718 1605 594.473 1605 604.119ZM1544.7 604.119C1544.7 613.671 1536.5 621.52 1526.3 621.52C1516.2 621.52 1507.9 613.671 1507.9 604.119C1507.9 594.473 1516.2 586.718 1526.3 586.718C1536.5 586.718 1544.7 594.473 1544.7 604.119ZM1484.4 604.119C1484.4 613.671 1476.2 621.52 1466 621.52C1455.9 621.52 1447.6 613.671 1447.6 604.119C1447.6 594.473 1455.9 586.718 1466 586.718C1476.2 586.718 1484.4 594.473 1484.4 604.119ZM1665.3 545.201C1665.3 554.753 1657.1 562.602 1647 562.602C1636.8 562.602 1628.6 554.753 1628.6 545.201C1628.6 535.555 1636.8 527.8 1647 527.8C1657.1 527.8 1665.3 535.555 1665.3 545.201ZM1605 545.201C1605 554.753 1596.8 562.602 1586.6 562.602C1576.5 562.602 1568.3 554.753 1568.3 545.201C1568.3 535.555 1576.5 527.8 1586.6 527.8C1596.8 527.8 1605 535.555 1605 545.201ZM1544.7 545.201C1544.7 554.753 1536.5 562.602 1526.3 562.602C1516.2 562.602 1507.9 554.753 1507.9 545.201C1507.9 535.555 1516.2 527.8 1526.3 527.8C1536.5 527.8 1544.7 535.555 1544.7 545.201ZM1484.4 545.201C1484.4 554.753 1476.2 562.602 1466 562.602C1455.9 562.602 1447.6 554.753 1447.6 545.201C1447.6 535.555 1455.9 527.8 1466 527.8C1476.2 527.8 1484.4 535.555 1484.4 545.201ZM1665.3 780.872C1665.3 790.518 1657.1 798.273 1647 798.273C1636.8 798.273 1628.6 790.518 1628.6 780.872C1628.6 771.321 1636.8 763.471 1647 763.471C1657.1 763.471 1665.3 771.321 1665.3 780.872ZM1605 780.872C1605 790.518 1596.8 798.273 1586.6 798.273C1576.5 798.273 1568.3 790.518 1568.3 780.872C1568.3 771.321 1576.5 763.471 1586.6 763.471C1596.8 763.471 1605 771.321 1605 780.872ZM1544.7 780.872C1544.7 790.518 1536.5 798.273 1526.3 798.273C1516.2 798.273 1507.9 790.518 1507.9 780.872C1507.9 771.321 1516.2 763.471 1526.3 763.471C1536.5 763.471 1544.7 771.321 1544.7 780.872ZM1484.4 780.872C1484.4 790.518 1476.2 798.273 1466 798.273C1455.9 798.273 1447.6 790.518 1447.6 780.872C1447.6 771.321 1455.9 763.471 1466 763.471C1476.2 763.471 1484.4 771.321 1484.4 780.872ZM1725.7 721.954C1725.7 731.601 1717.4 739.356 1707.3 739.356C1697.1 739.356 1688.9 731.601 1688.9 721.954C1688.9 712.403 1697.1 704.553 1707.3 704.553C1717.4 704.553 1725.7 712.403 1725.7 721.954ZM1665.3 721.954C1665.3 731.601 1657.1 739.356 1647 739.356C1636.8 739.356 1628.6 731.601 1628.6 721.954C1628.6 712.403 1636.8 704.553 1647 704.553C1657.1 704.553 1665.3 712.403 1665.3 721.954ZM1605 721.954C1605 731.601 1596.8 739.356 1586.6 739.356C1576.5 739.356 1568.3 731.601 1568.3 721.954C1568.3 712.403 1576.5 704.553 1586.6 704.553C1596.8 704.553 1605 712.403 1605 721.954ZM1544.7 721.954C1544.7 731.601 1536.5 739.356 1526.3 739.356C1516.2 739.356 1507.9 731.601 1507.9 721.954C1507.9 712.403 1516.2 704.553 1526.3 704.553C1536.5 704.553 1544.7 712.403 1544.7 721.954ZM1484.4 721.954C1484.4 731.601 1476.2 739.356 1466 739.356C1455.9 739.356 1447.6 731.601 1447.6 721.954C1447.6 712.403 1455.9 704.553 1466 704.553C1476.2 704.553 1484.4 712.403 1484.4 721.954ZM1725.7 663.037C1725.7 672.683 1717.4 680.438 1707.3 680.438C1697.1 680.438 1688.9 672.683 1688.9 663.037C1688.9 653.391 1697.1 645.636 1707.3 645.636C1717.4 645.636 1725.7 653.391 1725.7 663.037ZM1665.3 663.037C1665.3 672.588 1657.1 680.438 1647 680.438C1636.8 680.438 1628.6 672.588 1628.6 663.037C1628.6 653.391 1636.8 645.636 1647 645.636C1657.1 645.636 1665.3 653.391 1665.3 663.037ZM1605 663.037C1605 672.683 1596.8 680.438 1586.6 680.438C1576.5 680.438 1568.3 672.588 1568.3 663.037C1568.3 653.391 1576.5 645.636 1586.6 645.636C1596.8 645.636 1605 653.391 1605 663.037ZM1544.7 663.037C1544.7 672.683 1536.5 680.438 1526.3 680.438C1516.2 680.438 1507.9 672.588 1507.9 663.037C1507.9 653.391 1516.2 645.636 1526.3 645.636C1536.5 645.636 1544.7 653.391 1544.7 663.037ZM1484.4 663.037C1484.4 672.588 1476.2 680.438 1466 680.438C1455.9 680.438 1447.6 672.588 1447.6 663.037C1447.6 653.391 1455.9 645.636 1466 645.636C1476.2 645.636 1484.4 653.391 1484.4 663.037ZM1424.1 604.119C1424.1 613.671 1415.8 621.52 1405.7 621.52C1395.5 621.52 1387.3 613.671 1387.3 604.119C1387.3 594.473 1395.5 586.718 1405.7 586.718C1415.8 586.718 1424.1 594.473 1424.1 604.119ZM1424.1 721.954C1424.1 731.601 1415.8 739.356 1405.7 739.356C1395.5 739.356 1387.3 731.601 1387.3 721.954C1387.3 712.403 1395.5 704.553 1405.7 704.553C1415.8 704.553 1424.1 712.403 1424.1 721.954Z" fill="#003333"/>
<path id="&#60;Compound Path&#62;_5" d="M1424.1 663.037C1424.1 672.683 1415.8 680.438 1405.7 680.438C1395.5 680.438 1387.3 672.683 1387.3 663.037H1424.1ZM1447.7 663.037H1484.4C1484.4 672.588 1476.2 680.438 1466 680.438C1455.9 680.438 1447.7 672.588 1447.7 663.037V663.037ZM1508 663.037H1544.7C1544.7 672.683 1536.5 680.438 1526.4 680.438C1516.2 680.438 1508 672.588 1508 663.037V663.037ZM1568.3 663.037H1605.1C1605.1 672.683 1596.8 680.438 1586.7 680.438C1576.5 680.438 1568.3 672.588 1568.3 663.037ZM1628.6 663.037H1665.4C1665.4 672.588 1657.2 680.438 1647 680.438C1636.9 680.438 1628.6 672.588 1628.6 663.037V663.037ZM1688.9 663.037H1725.7C1725.7 672.683 1717.5 680.438 1707.3 680.438C1697.2 680.438 1688.9 672.683 1688.9 663.037V663.037ZM1665.4 780.872C1665.4 790.518 1657.2 798.273 1647 798.273C1636.9 798.273 1628.6 790.518 1628.6 780.872C1628.6 771.321 1636.9 763.471 1647 763.471C1657.2 763.471 1665.4 771.321 1665.4 780.872ZM1605.1 780.872C1605.1 790.518 1596.8 798.273 1586.7 798.273C1576.5 798.273 1568.3 790.518 1568.3 780.872C1568.3 771.321 1576.5 763.471 1586.7 763.471C1596.8 763.471 1605.1 771.321 1605.1 780.872ZM1544.7 780.872C1544.7 790.518 1536.5 798.273 1526.4 798.273C1516.2 798.273 1508 790.518 1508 780.872C1508 771.321 1516.2 763.471 1526.4 763.471C1536.5 763.471 1544.7 771.321 1544.7 780.872ZM1484.4 780.872C1484.4 790.518 1476.2 798.273 1466 798.273C1455.9 798.273 1447.7 790.518 1447.7 780.872C1447.7 771.321 1455.9 763.471 1466 763.471C1476.2 763.471 1484.4 771.321 1484.4 780.872ZM1725.7 721.954C1725.7 731.601 1717.5 739.356 1707.3 739.356C1697.2 739.356 1688.9 731.601 1688.9 721.954C1688.9 712.403 1697.2 704.553 1707.3 704.553C1717.5 704.553 1725.7 712.403 1725.7 721.954ZM1665.4 721.954C1665.4 731.601 1657.2 739.356 1647 739.356C1636.9 739.356 1628.6 731.601 1628.6 721.954C1628.6 712.403 1636.8 704.553 1647 704.553C1657.2 704.553 1665.4 712.403 1665.4 721.954ZM1605.1 721.954C1605.1 731.601 1596.8 739.356 1586.7 739.356C1576.5 739.356 1568.3 731.601 1568.3 721.954C1568.3 712.403 1576.5 704.553 1586.7 704.553C1596.8 704.553 1605.1 712.403 1605.1 721.954ZM1544.7 721.954C1544.7 731.601 1536.5 739.356 1526.4 739.356C1516.2 739.356 1508 731.601 1508 721.954C1508 712.403 1516.2 704.553 1526.4 704.553C1536.5 704.553 1544.7 712.403 1544.7 721.954ZM1484.4 721.954C1484.4 731.601 1476.2 739.356 1466 739.356C1455.9 739.356 1447.7 731.601 1447.7 721.954C1447.7 712.403 1455.9 704.553 1466 704.553C1476.2 704.553 1484.4 712.403 1484.4 721.954ZM1424.1 721.954C1424.1 731.601 1415.9 739.356 1405.7 739.356C1395.6 739.356 1387.3 731.601 1387.3 721.954C1387.3 712.403 1395.6 704.553 1405.7 704.553C1415.9 704.553 1424.1 712.403 1424.1 721.954Z" fill="#003333"/>
<path id="&#60;Path&#62;_2" d="M872.3 588.137H888.9C897.1 588.137 903.8 594.473 903.8 602.228C903.8 594.473 910.5 588.137 918.7 588.137H935.3C943.5 588.137 950.2 594.473 950.2 602.228C950.2 594.473 957 588.137 965.2 588.137H981.7C990 588.137 996.7 594.473 996.7 602.228C996.7 594.473 1003.4 588.137 1011.6 588.137H1028.2C1036.4 588.137 1043.1 594.473 1043.1 602.228V641.664C1043.1 649.419 1036.4 655.849 1028.2 655.849H1011.6C1003.4 655.849 996.7 649.419 996.7 641.664C996.7 649.419 990 655.849 981.7 655.849H965.2C957 655.849 950.2 649.419 950.2 641.664C950.2 649.419 943.5 655.849 935.3 655.849H918.7C910.5 655.849 903.8 649.419 903.8 641.664C903.8 649.419 897.1 655.849 888.9 655.849H872.3C864.1 655.849 857.4 649.419 857.4 641.664V602.228C857.4 594.473 864.1 588.137 872.3 588.137V588.137Z" fill="#FCD1C0"/>
<g id="&#60;Clip Group&#62;">
<g id="&#60;Group&#62;">
<path id="&#60;Path&#62;_3" d="M870.8 655.66C863.512 655.235 857.8 652.256 857.8 648.615V645.636V629.511V595.513C857.8 591.919 863.512 588.893 870.8 588.515V655.66Z" fill="#E3BDAE"/>
<path id="&#60;Path&#62;_4" d="M890.8 588.515C898.088 588.893 903.8 591.919 903.8 595.513V629.511V645.636V648.615C903.8 652.256 898.088 655.235 890.8 655.66V588.515Z" fill="#FCDBCF"/>
<path id="&#60;Path&#62;_5" d="M916.8 655.66C909.469 655.235 903.8 652.256 903.8 648.615V645.636V629.511V595.513C903.8 591.919 909.469 588.893 916.8 588.515V655.66Z" fill="#E3BDAE"/>
<path id="&#60;Path&#62;_6" d="M963.8 655.66C956.011 655.235 949.8 652.256 949.8 648.615V645.636V629.511V595.513C949.8 591.919 956.011 588.893 963.8 588.515V655.66Z" fill="#E3BDAE"/>
<path id="&#60;Path&#62;_7" d="M1009.8 655.66C1002.51 655.235 996.8 652.256 996.8 648.615V645.636V629.511V595.513C996.8 591.919 1002.51 588.893 1009.8 588.515V655.66Z" fill="#E3BDAE"/>
<path id="&#60;Path&#62;_8" d="M936.8 588.515C944.088 588.893 949.8 591.919 949.8 595.513V629.511V645.636V648.615C949.8 652.256 944.088 655.235 936.8 655.66V588.515Z" fill="#FCDBCF"/>
<path id="&#60;Path&#62;_9" d="M983.8 588.515C991.033 588.893 996.8 591.919 996.8 595.513V629.511V645.636V648.615C996.8 652.256 991.033 655.235 983.8 655.66V588.515Z" fill="#FCDBCF"/>
<path id="&#60;Path&#62;_10" d="M1029.8 588.515C1037.13 588.893 1042.8 591.919 1042.8 595.513V629.511V645.636V648.615C1042.8 652.256 1037.13 655.235 1029.8 655.66V588.515Z" fill="#FCDBCF"/>
</g>
</g>
<path id="&#60;Path&#62;_11" d="M1060 630.41V700.487V736.329V737.748C1060 758.175 1042.2 775.009 1020.6 775.009H896.8C875.1 775.009 857.4 758.175 857.4 737.748V700.487H998V630.41C998 614.333 1012 601.093 1029 601.093C1046 601.093 1060 614.333 1060 630.41V630.41Z" fill="#FCD1C0"/>
<g id="&#60;Clip Group&#62;_2">
<g id="&#60;Group&#62;_2">
<path id="&#60;Path&#62;_12" d="M1045.7 660.01V626.06V616.886C1045.7 612.347 1044.5 607.996 1042.5 604.119C1050.4 607.807 1056.5 614.522 1058.9 622.655C1059.6 625.114 1060 627.762 1060 630.41V700.487V736.329V737.748C1060 758.175 1042.2 775.009 1020.6 775.009H896.8C882.3 775.009 869.6 767.443 862.7 756.378C868.5 759.594 875.3 761.485 882.5 761.485H1006.3C1027.9 761.485 1045.7 744.652 1045.7 724.224V722.806V686.963V660.01Z" fill="#E3BDAE"/>
</g>
</g>
<path id="&#60;Path&#62;_13" d="M1025.7 775.009H891.7C886.177 775.009 881.7 779.243 881.7 784.466V858.609C881.7 863.832 886.177 868.067 891.7 868.067H1025.7C1031.22 868.067 1035.7 863.832 1035.7 858.609V784.466C1035.7 779.243 1031.22 775.009 1025.7 775.009Z" fill="white"/>
<path id="&#60;Path&#62;_14" d="M891.6 868.067H1025.7V1080.28H891.6V868.067Z" fill="#FCD1C0"/>
<path id="&#60;Compound Path&#62;_6" d="M1517.4 407.79C1523.73 406.907 1530.17 406.245 1536.7 405.804C1543.37 405.362 1549.97 405.142 1556.5 405.142C1558.23 405.142 1560.6 405.173 1563.6 405.236C1565.93 405.299 1568.1 405.394 1570.1 405.52C1570.3 405.52 1570.53 405.52 1570.8 405.52C1574.6 405.709 1577.5 408.736 1577.3 412.329C1577.1 415.923 1573.9 418.665 1570.1 418.476C1567.63 418.35 1565.37 418.256 1563.3 418.193C1561.63 418.13 1559.37 418.098 1556.5 418.098C1550.1 418.098 1543.8 418.319 1537.6 418.76C1531.4 419.201 1525.17 419.863 1518.9 420.746C1515.1 421.219 1511.6 418.76 1511.1 415.261C1510.5 411.667 1513.1 408.357 1516.9 407.884C1517.03 407.884 1517.2 407.853 1517.4 407.79V407.79ZM1627.6 414.032C1674.4 426.042 1716.2 449.306 1749.3 480.704C1782.5 512.007 1807.1 551.538 1819.8 595.797C1819.8 595.986 1819.83 596.144 1819.9 596.27C1820.9 599.769 1818.7 603.363 1815 604.214C1811.4 605.159 1807.6 603.079 1806.6 599.674C1794.7 557.401 1771.2 519.762 1739.6 489.877C1708 459.993 1668.2 437.769 1623.5 426.515C1619.9 425.569 1617.7 421.975 1618.7 418.571C1619.6 415.072 1623.4 412.991 1627.1 413.937C1627.23 414 1627.4 414.032 1627.6 414.032V414.032Z" fill="white"/>
<path id="&#60;Path&#62;_15" d="M1417.6 492.336C1393.1 508.319 1371.9 528.462 1355.1 551.632C1351.97 555.919 1349 560.301 1346.2 564.778C1334.7 583.313 1325.9 603.362 1320.3 624.736C1319.17 629.086 1318.17 633.468 1317.3 637.881C1317.17 638.259 1317.07 638.669 1317 639.11C1317.07 638.669 1317.13 638.259 1317.2 637.881C1317.67 633.468 1318.3 629.086 1319.1 624.736C1322.9 603.646 1329.7 583.503 1339.2 564.778C1341.47 560.364 1343.87 555.982 1346.4 551.632C1359.7 529.313 1376.9 509.264 1397.1 492.336C1402.63 487.734 1408.4 483.352 1414.4 479.191C1433.3 466.14 1454.3 455.548 1476.8 448.077C1496.6 441.552 1517.6 437.391 1539.4 435.877C1545 435.499 1550.7 435.31 1556.5 435.31C1609.3 435.31 1658.1 451.387 1697.7 478.623C1703.77 482.785 1709.6 487.166 1715.2 491.769C1726.5 501.226 1736.9 511.629 1746.2 522.883C1749.73 527.107 1753.1 531.489 1756.3 536.028C1769.2 554.091 1779.4 574.046 1786.4 595.324C1787.87 599.674 1789.17 604.056 1790.3 608.469C1792.9 618.588 1794.9 628.991 1796 639.583C1796.47 643.933 1796.8 648.315 1797 652.729C1797.2 656.133 1797.3 659.569 1797.3 663.037H1794C1793.73 659.569 1793.4 656.133 1793 652.729C1792.4 648.315 1791.7 643.933 1790.9 639.583C1788.9 628.897 1786.1 618.588 1782.5 608.469C1780.97 604.056 1779.3 599.674 1777.5 595.324C1768.3 573.667 1755.7 553.713 1740.4 536.028C1736.47 531.489 1732.37 527.107 1728.1 522.883C1716.4 511.25 1703.4 500.848 1689.3 491.769C1681.9 486.977 1674.2 482.595 1666.2 478.623C1632.7 461.884 1594.5 452.427 1553.9 452.427C1512.9 452.427 1474.3 462.074 1440.5 479.191C1432.57 483.163 1424.93 487.545 1417.6 492.336V492.336Z" fill="#30A657"/>
</g>
</g>
</g>
<defs>
<clipPath id="clip0_2_85">
<rect width="1920" height="1080" fill="white"/>
</clipPath>
</defs>
</svg>
