<svg xmlns="http://www.w3.org/2000/svg" width="375" viewBox="0 0 375 375" height="375" version="1.0"><defs><clipPath id="a"><path d="M 237.808594 126.757812 L 311.308594 126.757812 L 311.308594 200.257812 L 237.808594 200.257812 Z M 237.808594 126.757812"/></clipPath><clipPath id="b"><path d="M 241 176 L 283 176 L 283 200.257812 L 241 200.257812 Z M 241 176"/></clipPath></defs><g clip-path="url(#a)"><path fill="#004AAD" d="M 311.324219 163.523438 C 311.324219 163.570312 311.324219 163.613281 311.324219 163.664062 C 311.3125 167.957031 310.558594 172.078125 309.191406 175.902344 C 309.007812 176.417969 308.8125 176.921875 308.601562 177.425781 C 306.613281 182.296875 303.605469 186.644531 299.851562 190.207031 C 296.089844 193.769531 291.582031 196.539062 286.582031 198.269531 C 285.300781 198.710938 283.984375 199.085938 282.644531 199.386719 C 282.613281 199.394531 282.585938 199.398438 282.558594 199.40625 C 281.0625 199.738281 279.542969 199.976562 277.988281 200.117188 C 276.871094 200.226562 275.726562 200.277344 274.578125 200.277344 C 270.816406 200.277344 267.183594 199.714844 263.761719 198.660156 C 262.894531 198.394531 262.042969 198.097656 261.207031 197.769531 C 253.652344 194.8125 247.3125 189.4375 243.148438 182.589844 C 242.457031 181.453125 241.824219 180.277344 241.257812 179.058594 C 239.160156 174.578125 237.945312 169.601562 237.828125 164.351562 C 237.824219 164.074219 237.820312 163.804688 237.820312 163.527344 C 237.820312 163.25 237.824219 162.980469 237.828125 162.707031 C 238.054688 152.214844 242.6875 142.804688 249.945312 136.25 C 250.523438 135.726562 251.117188 135.222656 251.726562 134.738281 C 252.09375 134.445312 252.460938 134.164062 252.84375 133.886719 C 254.101562 132.960938 255.425781 132.113281 256.796875 131.351562 C 262.070312 128.429688 268.128906 126.769531 274.578125 126.769531 C 277.34375 126.769531 280.042969 127.078125 282.632812 127.660156 C 283.980469 127.960938 285.292969 128.335938 286.582031 128.78125 C 295.214844 131.761719 302.386719 137.867188 306.75 145.75 C 307.613281 147.300781 308.359375 148.917969 308.984375 150.597656 C 309.03125 150.714844 309.074219 150.832031 309.117188 150.949219 L 309.117188 150.953125 C 309.410156 151.75 309.675781 152.554688 309.910156 153.375 C 310.6875 156.085938 311.160156 158.929688 311.289062 161.855469 C 311.3125 162.40625 311.324219 162.964844 311.324219 163.523438 Z M 311.324219 163.523438"/></g><path fill="#004AAD" d="M 258.699219 193.054688 C 259.457031 193.054688 259.457031 191.871094 258.699219 191.871094 C 257.941406 191.871094 257.9375 193.054688 258.699219 193.054688 Z M 258.699219 193.054688"/><path fill="#004AAD" d="M 254.640625 190.566406 C 255.402344 190.566406 255.402344 189.386719 254.640625 189.386719 C 253.878906 189.386719 253.878906 190.566406 254.640625 190.566406 Z M 254.640625 190.566406"/><path fill="#004AAD" d="M 258.304688 188.339844 C 259.066406 188.339844 259.066406 187.160156 258.304688 187.160156 C 257.546875 187.160156 257.546875 188.339844 258.304688 188.339844 Z M 258.304688 188.339844"/><path fill="#004AAD" d="M 251.890625 185.066406 C 251.847656 185.066406 251.804688 185.066406 251.761719 185.066406 C 251.453125 185.066406 251.15625 185.339844 251.171875 185.65625 C 251.1875 185.976562 251.429688 186.25 251.761719 186.25 C 251.804688 186.25 251.847656 186.25 251.890625 186.25 C 252.199219 186.25 252.496094 185.976562 252.484375 185.65625 C 252.46875 185.339844 252.222656 185.066406 251.890625 185.066406 Z M 251.890625 185.066406"/><path fill="#004AAD" d="M 255.425781 184.546875 C 256.1875 184.546875 256.1875 183.363281 255.425781 183.363281 C 254.667969 183.363281 254.664062 184.546875 255.425781 184.546875 Z M 255.425781 184.546875"/><path fill="#004AAD" d="M 247.835938 181.925781 C 248.597656 181.925781 248.597656 180.746094 247.835938 180.746094 C 247.074219 180.75 247.074219 181.925781 247.835938 181.925781 Z M 247.835938 181.925781"/><path fill="#004AAD" d="M 243.90625 178.65625 C 244.667969 178.65625 244.667969 177.476562 243.90625 177.476562 C 243.148438 177.476562 243.148438 178.65625 243.90625 178.65625 Z M 243.90625 178.65625"/><path fill="#004AAD" d="M 263.277344 192.398438 C 264.039062 192.398438 264.039062 191.21875 263.277344 191.21875 C 262.519531 191.21875 262.519531 192.398438 263.277344 192.398438 Z M 263.277344 192.398438"/><path fill="#004AAD" d="M 261.578125 195.40625 C 262.339844 195.40625 262.339844 194.226562 261.578125 194.226562 C 260.816406 194.230469 260.816406 195.40625 261.578125 195.40625 Z M 261.578125 195.40625"/><path fill="#004AAD" d="M 272.050781 197.765625 C 272.808594 197.765625 272.808594 196.582031 272.050781 196.582031 C 271.289062 196.582031 271.289062 197.765625 272.050781 197.765625 Z M 272.050781 197.765625"/><path fill="#004AAD" d="M 277.546875 197.109375 C 278.308594 197.109375 278.308594 195.929688 277.546875 195.929688 C 276.785156 195.929688 276.785156 197.109375 277.546875 197.109375 Z M 277.546875 197.109375"/><path fill="#004AAD" d="M 281.996094 197.898438 C 282.753906 197.898438 282.753906 196.714844 281.996094 196.714844 C 281.238281 196.714844 281.234375 197.898438 281.996094 197.898438 Z M 281.996094 197.898438"/><path fill="#004AAD" d="M 247.636719 184.609375 C 247.636719 184.652344 247.636719 184.695312 247.636719 184.738281 C 247.636719 185.046875 247.90625 185.34375 248.226562 185.328125 C 248.546875 185.316406 248.816406 185.070312 248.816406 184.738281 C 248.816406 184.695312 248.816406 184.652344 248.816406 184.609375 C 248.816406 184.300781 248.546875 184.003906 248.226562 184.019531 C 247.90625 184.03125 247.636719 184.277344 247.636719 184.609375 Z M 247.636719 184.609375"/><path fill="#004AAD" d="M 250.910156 180.816406 C 250.910156 180.859375 250.910156 180.902344 250.910156 180.945312 C 250.910156 181.253906 251.179688 181.550781 251.5 181.535156 C 251.820312 181.519531 252.089844 181.277344 252.089844 180.945312 C 252.089844 180.902344 252.089844 180.859375 252.089844 180.816406 C 252.089844 180.507812 251.820312 180.210938 251.5 180.222656 C 251.179688 180.238281 250.910156 180.484375 250.910156 180.816406 Z M 250.910156 180.816406"/><path fill="#004AAD" d="M 241.8125 174.335938 C 242.574219 174.335938 242.574219 173.15625 241.8125 173.15625 C 241.054688 173.15625 241.054688 174.335938 241.8125 174.335938 Z M 241.8125 174.335938"/><path fill="#004AAD" d="M 267.40625 193.902344 C 267.40625 193.859375 267.40625 193.816406 267.40625 193.773438 C 267.40625 193.464844 267.132812 193.167969 266.8125 193.183594 C 266.492188 193.199219 266.222656 193.441406 266.222656 193.773438 C 266.222656 193.816406 266.222656 193.859375 266.222656 193.902344 C 266.222656 194.210938 266.492188 194.507812 266.8125 194.496094 C 267.132812 194.480469 267.40625 194.230469 267.40625 193.902344 Z M 267.40625 193.902344"/><path fill="#FFF" d="M 308.984375 150.597656 C 308.617188 150.4375 308.242188 150.292969 307.867188 150.164062 C 302.878906 148.414062 297.242188 148.789062 292.410156 151.183594 C 290.6875 152.035156 289.089844 153.183594 287.410156 154.398438 C 284.363281 156.582031 281.21875 158.84375 277.089844 159.480469 C 270.722656 160.457031 265.046875 158.601562 260.683594 154.117188 C 256.007812 149.324219 253.136719 141.628906 252.835938 133.886719 C 254.097656 132.957031 255.417969 132.109375 256.792969 131.351562 C 256.558594 138.152344 258.589844 146.328125 263.5 151.367188 C 266.992188 154.957031 271.359375 156.371094 276.488281 155.582031 C 279.683594 155.097656 282.316406 153.203125 285.109375 151.199219 C 286.851562 149.949219 288.652344 148.652344 290.664062 147.65625 C 295.671875 145.175781 301.40625 144.515625 306.746094 145.746094 C 307.609375 147.300781 308.359375 148.917969 308.984375 150.597656 Z M 308.984375 150.597656"/><g clip-path="url(#b)"><path fill="#FFF" d="M 282.554688 199.402344 C 281.0625 199.734375 279.539062 199.976562 277.988281 200.117188 C 277.65625 199.667969 277.351562 199.207031 277.082031 198.75 C 276.136719 197.164062 275.484375 195.488281 274.855469 193.871094 C 274.21875 192.234375 273.617188 190.6875 272.761719 189.335938 C 271.210938 186.882812 269.136719 184.785156 266.753906 183.269531 C 259.597656 178.710938 251.003906 180.15625 243.144531 182.582031 C 242.453125 181.445312 241.820312 180.269531 241.253906 179.054688 C 249.929688 176.304688 260.144531 174.390625 268.867188 179.949219 C 271.734375 181.773438 274.230469 184.296875 276.082031 187.234375 C 277.140625 188.910156 277.835938 190.707031 278.515625 192.441406 C 279.117188 193.976562 279.679688 195.429688 280.460938 196.730469 C 281.019531 197.664062 281.730469 198.605469 282.554688 199.402344 Z M 282.554688 199.402344"/></g><g fill="#FF5757"><g><g><path d="M 8.726562 8.242188 L 10.109375 0 L 26.246094 0 C 28.808594 0 30.539062 -0.0703125 31.507812 -0.207031 C 32.753906 -0.414062 33.652344 -0.761719 34.207031 -1.316406 C 34.902344 -1.9375 35.386719 -2.976562 35.664062 -4.433594 C 35.871094 -5.402344 36.148438 -7.132812 36.492188 -9.765625 C 37.671875 -18.003906 38.363281 -22.921875 38.570312 -24.582031 C 38.988281 -26.9375 39.195312 -28.460938 39.195312 -29.292969 C 39.261719 -29.84375 39.261719 -30.261719 39.261719 -30.605469 C 39.261719 -31.4375 39.195312 -32.128906 38.917969 -32.617188 C 38.5 -33.585938 37.1875 -34.070312 35.039062 -34.207031 C 34.207031 -34.347656 32.617188 -34.347656 30.261719 -34.347656 L 14.679688 -34.347656 C 11.980469 -34.347656 10.109375 -34.277344 9.140625 -34.140625 C 7.480469 -34 6.300781 -33.515625 5.609375 -32.683594 C 5.125 -32.0625 4.707031 -31.023438 4.363281 -29.5 C 4.222656 -28.667969 4.015625 -27.074219 3.671875 -24.582031 L 3.324219 -22.019531 L 0.277344 0 L -0.96875 9.765625 C -1.039062 10.316406 -1.109375 10.664062 -1.175781 10.871094 C -1.246094 11.148438 -1.386719 11.496094 -1.660156 11.773438 C -1.800781 12.050781 -2.078125 12.324219 -2.492188 12.742188 C -2.769531 13.019531 -3.324219 13.433594 -4.15625 14.125 L -0.832031 14.125 C 0.136719 14.125 0.96875 14.058594 1.660156 13.988281 C 2.769531 13.847656 3.671875 13.78125 4.433594 13.503906 C 5.261719 13.226562 5.886719 12.878906 6.371094 12.535156 C 7.132812 11.980469 7.6875 11.21875 8.101562 10.386719 C 8.378906 9.765625 8.585938 9.070312 8.726562 8.242188 Z M 11.425781 -9.765625 L 13.15625 -22.019531 C 13.296875 -22.714844 13.433594 -23.199219 13.503906 -23.40625 C 13.640625 -23.820312 13.710938 -24.027344 13.847656 -24.167969 C 14.058594 -24.375 14.402344 -24.511719 14.820312 -24.511719 C 15.097656 -24.582031 15.582031 -24.582031 16.34375 -24.582031 L 28.738281 -24.582031 L 27.007812 -12.257812 C 26.9375 -11.632812 26.867188 -11.21875 26.796875 -10.941406 C 26.730469 -10.59375 26.589844 -10.316406 26.382812 -10.109375 C 26.246094 -10.039062 26.105469 -9.972656 25.898438 -9.832031 C 25.761719 -9.832031 25.550781 -9.832031 25.273438 -9.765625 Z M 11.425781 -9.765625" transform="translate(45.615 183.253)"/></g></g></g><g fill="#FF5757"><g><g><path d="M 31.578125 -34.347656 L 4.777344 -34.347656 L 4.777344 -33.167969 C 4.777344 -31.367188 4.847656 -29.984375 4.847656 -29.152344 C 4.984375 -27.628906 5.261719 -26.589844 5.679688 -25.96875 C 6.164062 -25.34375 6.992188 -24.929688 8.242188 -24.722656 C 9.070312 -24.652344 10.800781 -24.582031 13.296875 -24.582031 L 28.53125 -24.582031 C 28.460938 -23.820312 28.390625 -23.335938 28.320312 -23.058594 C 28.320312 -22.78125 28.253906 -22.574219 28.113281 -22.4375 C 27.976562 -22.296875 27.769531 -22.160156 27.492188 -22.089844 C 27.351562 -22.089844 26.9375 -22.019531 26.382812 -22.019531 L 11.910156 -22.019531 C 9.347656 -22.019531 7.546875 -21.953125 6.578125 -21.8125 C 5.402344 -21.675781 4.5 -21.257812 3.878906 -20.636719 C 3.324219 -20.082031 2.839844 -18.972656 2.492188 -17.3125 C 2.355469 -16.480469 2.078125 -14.820312 1.730469 -12.324219 L 1.316406 -9.765625 C 0.96875 -6.992188 0.761719 -5.125 0.691406 -4.15625 L 0.691406 -3.738281 C 0.691406 -2.632812 0.832031 -1.871094 1.246094 -1.316406 C 1.660156 -0.832031 2.355469 -0.484375 3.324219 -0.277344 C 4.292969 -0.136719 6.441406 0 9.765625 0 L 24.789062 0 C 28.253906 0 30.46875 -0.136719 31.4375 -0.277344 C 32.40625 -0.484375 33.167969 -0.761719 33.722656 -1.175781 C 34.347656 -1.660156 34.832031 -2.421875 35.109375 -3.394531 C 35.453125 -4.363281 35.871094 -6.441406 36.285156 -9.765625 L 37.253906 -16.828125 L 38.363281 -24.582031 C 38.710938 -27.074219 38.917969 -28.738281 38.917969 -29.570312 C 38.988281 -29.984375 38.988281 -30.261719 38.988281 -30.539062 C 38.988281 -31.992188 38.640625 -32.960938 37.949219 -33.445312 C 37.53125 -33.792969 36.839844 -34 35.871094 -34.140625 C 35.039062 -34.277344 33.585938 -34.347656 31.578125 -34.347656 Z M 13.15625 -12.324219 L 26.796875 -12.324219 C 26.730469 -11.5625 26.660156 -11.078125 26.589844 -10.800781 C 26.523438 -10.527344 26.453125 -10.25 26.3125 -10.109375 C 26.246094 -9.972656 26.105469 -9.902344 25.828125 -9.832031 C 25.691406 -9.832031 25.273438 -9.765625 24.722656 -9.765625 L 11.148438 -9.765625 C 11.289062 -10.316406 11.355469 -10.734375 11.355469 -10.941406 C 11.425781 -11.496094 11.496094 -11.839844 11.632812 -11.980469 C 11.773438 -12.117188 11.910156 -12.257812 12.117188 -12.257812 C 12.257812 -12.324219 12.601562 -12.324219 13.15625 -12.324219 Z M 13.15625 -12.324219" transform="translate(85.501 183.253)"/></g></g></g><g fill="#FF5757"><g><g><path d="M 30.46875 -38.710938 L 29.84375 -34.347656 L 13.710938 -34.347656 C 11.078125 -34.347656 9.210938 -34.277344 8.242188 -34.070312 C 7.132812 -33.929688 6.230469 -33.515625 5.679688 -32.960938 C 5.125 -32.40625 4.707031 -31.507812 4.363281 -30.261719 C 4.15625 -29.359375 3.878906 -27.492188 3.460938 -24.582031 C 3.183594 -22.921875 2.839844 -20.496094 2.355469 -17.171875 C 1.9375 -13.847656 1.59375 -11.425781 1.386719 -9.765625 C 1.109375 -7.546875 0.898438 -6.09375 0.761719 -5.261719 C 0.761719 -4.707031 0.691406 -4.15625 0.691406 -3.738281 C 0.691406 -2.632812 0.96875 -1.800781 1.386719 -1.246094 C 1.800781 -0.832031 2.492188 -0.484375 3.460938 -0.277344 C 4.433594 -0.136719 6.507812 0 9.695312 0 L 25.207031 0 C 28.320312 0 30.398438 -0.0703125 31.367188 -0.207031 C 32.40625 -0.414062 33.167969 -0.691406 33.722656 -1.039062 C 34.484375 -1.59375 35.039062 -2.632812 35.386719 -4.015625 C 35.664062 -4.917969 35.9375 -6.855469 36.285156 -9.765625 L 36.632812 -12.324219 L 41.6875 -48.472656 C 38.710938 -48.472656 36.769531 -48.472656 35.800781 -48.335938 C 34.484375 -48.195312 33.515625 -47.78125 32.890625 -47.226562 C 32.339844 -46.742188 31.855469 -45.84375 31.507812 -44.59375 C 31.230469 -43.625 30.882812 -41.6875 30.46875 -38.710938 Z M 15.648438 -24.582031 L 28.460938 -24.582031 L 26.796875 -12.324219 C 26.660156 -11.632812 26.589844 -11.21875 26.453125 -10.941406 C 26.382812 -10.527344 26.246094 -10.25 26.035156 -10.109375 C 25.898438 -9.972656 25.691406 -9.902344 25.414062 -9.832031 C 25.136719 -9.832031 24.582031 -9.765625 23.613281 -9.765625 L 11.21875 -9.765625 L 12.949219 -22.019531 C 13.085938 -22.714844 13.15625 -23.199219 13.15625 -23.40625 C 13.296875 -23.820312 13.363281 -24.027344 13.503906 -24.167969 C 13.640625 -24.375 13.917969 -24.511719 14.195312 -24.511719 C 14.472656 -24.582031 14.957031 -24.582031 15.648438 -24.582031 Z M 15.648438 -24.582031" transform="translate(125.11 183.253)"/></g></g></g><g fill="#FF5757"><g><g><path d="M 14.820312 -34.347656 C 11.632812 -34.347656 9.554688 -34.277344 8.585938 -34.140625 C 7.339844 -34 6.371094 -33.585938 5.679688 -32.960938 C 5.054688 -32.40625 4.570312 -31.230469 4.222656 -29.570312 C 4.085938 -28.738281 3.808594 -27.144531 3.394531 -24.652344 L 1.316406 -9.832031 C 0.96875 -7.0625 0.761719 -5.261719 0.691406 -4.292969 L 0.691406 -3.808594 C 0.691406 -2.839844 0.832031 -2.148438 1.109375 -1.660156 C 1.523438 -1.039062 2.214844 -0.625 3.183594 -0.347656 C 4.15625 -0.207031 5.957031 -0.0703125 8.726562 -0.0703125 L 34.902344 -0.0703125 L 34.902344 -1.175781 C 34.902344 -3.253906 34.902344 -4.640625 34.761719 -5.46875 C 34.691406 -6.992188 34.414062 -7.964844 33.863281 -8.515625 C 33.445312 -9.070312 32.683594 -9.417969 31.578125 -9.554688 C 30.816406 -9.695312 29.082031 -9.765625 26.382812 -9.765625 L 11.148438 -9.765625 C 11.289062 -10.527344 11.355469 -11.011719 11.355469 -11.21875 C 11.425781 -11.632812 11.496094 -11.910156 11.632812 -12.050781 C 11.773438 -12.1875 11.980469 -12.257812 12.1875 -12.257812 C 12.394531 -12.324219 12.742188 -12.324219 13.226562 -12.324219 L 27.769531 -12.324219 C 30.191406 -12.324219 31.855469 -12.394531 32.753906 -12.535156 C 34.140625 -12.671875 35.109375 -13.085938 35.730469 -13.640625 C 36.285156 -14.265625 36.769531 -15.234375 37.046875 -16.550781 C 37.324219 -17.449219 37.601562 -19.25 37.949219 -22.019531 L 38.363281 -24.652344 C 38.640625 -26.867188 38.847656 -28.320312 38.917969 -29.082031 C 38.988281 -29.707031 38.988281 -30.191406 38.988281 -30.605469 C 38.988281 -31.992188 38.710938 -32.960938 38.015625 -33.445312 C 37.464844 -33.863281 36.425781 -34.140625 34.902344 -34.277344 C 34.070312 -34.347656 32.40625 -34.347656 29.914062 -34.347656 Z M 14.957031 -24.582031 L 28.460938 -24.582031 C 28.390625 -23.820312 28.320312 -23.265625 28.253906 -22.988281 C 28.253906 -22.714844 28.183594 -22.574219 28.046875 -22.4375 C 27.90625 -22.296875 27.628906 -22.160156 27.214844 -22.089844 L 12.878906 -22.089844 C 13.019531 -22.921875 13.085938 -23.40625 13.085938 -23.613281 C 13.226562 -23.890625 13.296875 -24.097656 13.363281 -24.238281 C 13.503906 -24.375 13.640625 -24.511719 13.78125 -24.511719 C 13.917969 -24.582031 14.335938 -24.582031 14.957031 -24.582031 Z M 14.957031 -24.582031" transform="translate(165.342 183.253)"/></g></g></g><g fill="#FF5757"><g><g><path d="M 17.3125 -48.472656 C 14.542969 -48.472656 12.601562 -48.472656 11.632812 -48.335938 C 10.527344 -48.195312 9.625 -47.988281 9.003906 -47.574219 C 8.171875 -47.089844 7.546875 -46.117188 7.132812 -44.664062 C 6.925781 -43.765625 6.578125 -41.824219 6.09375 -38.777344 L 2.839844 -15.164062 L 0.691406 0 C 3.460938 0 5.332031 -0.0703125 6.230469 -0.136719 C 7.894531 -0.347656 9.070312 -0.832031 9.765625 -1.523438 C 10.316406 -2.148438 10.734375 -3.117188 11.011719 -4.433594 C 11.289062 -5.402344 11.5625 -7.132812 11.910156 -9.695312 L 14.335938 -27.351562 Z M 17.3125 -48.472656" transform="translate(204.95 183.253)"/></g></g></g><g fill="#5271FF"><g><g><path d="M 29.316406 -31.886719 L 4.4375 -31.886719 L 4.4375 -30.792969 C 4.4375 -29.125 4.5 -27.835938 4.5 -27.066406 C 4.628906 -25.652344 4.886719 -24.6875 5.273438 -24.109375 C 5.722656 -23.53125 6.492188 -23.144531 7.652344 -22.953125 C 8.421875 -22.886719 10.027344 -22.824219 12.34375 -22.824219 L 26.488281 -22.824219 C 26.421875 -22.117188 26.359375 -21.664062 26.292969 -21.410156 C 26.292969 -21.152344 26.230469 -20.957031 26.101562 -20.828125 C 25.972656 -20.703125 25.78125 -20.574219 25.523438 -20.507812 C 25.394531 -20.507812 25.007812 -20.445312 24.496094 -20.445312 L 11.058594 -20.445312 C 8.679688 -20.445312 7.007812 -20.378906 6.109375 -20.25 C 5.015625 -20.121094 4.179688 -19.738281 3.601562 -19.160156 C 3.085938 -18.644531 2.636719 -17.617188 2.3125 -16.074219 C 2.1875 -15.300781 1.929688 -13.757812 1.605469 -11.445312 L 1.222656 -9.066406 C 0.898438 -6.492188 0.707031 -4.757812 0.644531 -3.855469 L 0.644531 -3.472656 C 0.644531 -2.441406 0.769531 -1.734375 1.15625 -1.222656 C 1.542969 -0.769531 2.1875 -0.449219 3.085938 -0.257812 C 3.984375 -0.128906 5.980469 0 9.066406 0 L 23.015625 0 C 26.230469 0 28.289062 -0.128906 29.1875 -0.257812 C 30.085938 -0.449219 30.792969 -0.707031 31.308594 -1.09375 C 31.886719 -1.542969 32.335938 -2.25 32.59375 -3.148438 C 32.917969 -4.050781 33.300781 -5.980469 33.6875 -9.066406 L 34.589844 -15.621094 L 35.617188 -22.824219 C 35.9375 -25.136719 36.132812 -26.679688 36.132812 -27.453125 C 36.195312 -27.835938 36.195312 -28.09375 36.195312 -28.351562 C 36.195312 -29.703125 35.875 -30.601562 35.230469 -31.050781 C 34.84375 -31.375 34.203125 -31.566406 33.300781 -31.695312 C 32.53125 -31.824219 31.179688 -31.886719 29.316406 -31.886719 Z M 12.214844 -11.445312 L 24.878906 -11.445312 C 24.816406 -10.738281 24.75 -10.285156 24.6875 -10.027344 C 24.625 -9.773438 24.558594 -9.515625 24.429688 -9.386719 C 24.367188 -9.257812 24.238281 -9.195312 23.980469 -9.128906 C 23.851562 -9.128906 23.464844 -9.066406 22.953125 -9.066406 L 10.351562 -9.066406 C 10.480469 -9.578125 10.542969 -9.964844 10.542969 -10.15625 C 10.609375 -10.671875 10.671875 -10.992188 10.800781 -11.121094 C 10.929688 -11.25 11.058594 -11.378906 11.25 -11.378906 C 11.378906 -11.445312 11.699219 -11.445312 12.214844 -11.445312 Z M 12.214844 -11.445312" transform="translate(37.5 244.07)"/></g></g></g><g fill="#5271FF"><g><g><path d="M 4.4375 -31.886719 L 3.214844 -22.824219 C 3.085938 -21.664062 2.828125 -19.609375 2.3125 -16.394531 C 1.863281 -13.242188 1.542969 -10.800781 1.285156 -9.066406 C 0.964844 -7.007812 0.769531 -5.527344 0.707031 -4.757812 C 0.707031 -4.308594 0.644531 -3.855469 0.644531 -3.472656 C 0.644531 -2.699219 0.769531 -2.058594 0.964844 -1.542969 C 1.351562 -0.898438 2.058594 -0.449219 3.214844 -0.257812 C 4.050781 -0.128906 5.527344 0 7.714844 0 L 24.6875 0 C 26.9375 0 28.480469 -0.128906 29.316406 -0.257812 C 30.539062 -0.515625 31.4375 -0.964844 31.953125 -1.671875 C 32.335938 -2.25 32.722656 -3.148438 32.980469 -4.371094 C 33.171875 -5.207031 33.429688 -6.75 33.6875 -9.066406 L 35.617188 -22.824219 C 35.9375 -25.203125 36.132812 -26.746094 36.195312 -27.515625 L 36.195312 -28.351562 C 36.195312 -29.25 36.066406 -29.960938 35.808594 -30.410156 C 35.488281 -31.050781 34.78125 -31.503906 33.625 -31.628906 C 32.789062 -31.824219 30.859375 -31.886719 27.773438 -31.886719 L 26.488281 -22.824219 L 24.558594 -9.066406 L 12.664062 -9.066406 C 11.828125 -9.066406 11.316406 -9.066406 11.058594 -9.128906 C 10.863281 -9.257812 10.738281 -9.320312 10.609375 -9.449219 C 10.609375 -9.578125 10.542969 -9.835938 10.542969 -10.09375 C 10.609375 -10.351562 10.671875 -10.738281 10.738281 -11.378906 L 12.34375 -22.824219 C 12.664062 -25.265625 12.859375 -26.746094 12.859375 -27.257812 C 12.988281 -27.773438 12.988281 -28.222656 12.988281 -28.609375 C 12.988281 -29.507812 12.859375 -30.152344 12.535156 -30.539062 C 12.152344 -31.179688 11.316406 -31.566406 9.964844 -31.695312 C 9.128906 -31.824219 7.265625 -31.886719 4.4375 -31.886719 Z M 4.4375 -31.886719" transform="translate(74.273 244.07)"/></g></g></g><g fill="#5271FF"><g><g><path d="M 12.730469 -31.824219 C 10.414062 -31.824219 8.808594 -31.824219 7.90625 -31.695312 C 6.75 -31.566406 5.914062 -31.179688 5.335938 -30.667969 C 4.757812 -30.152344 4.308594 -29.1875 3.984375 -27.835938 C 3.855469 -27.066406 3.601562 -25.394531 3.214844 -22.824219 C 3.148438 -22.308594 2.894531 -20.378906 2.378906 -16.910156 C 1.863281 -13.5 1.542969 -10.863281 1.285156 -9.066406 C 0.898438 -6.492188 0.707031 -4.820312 0.644531 -3.921875 L 0.644531 -3.472656 C 0.644531 -2.570312 0.835938 -1.863281 1.09375 -1.414062 C 1.480469 -0.898438 2.121094 -0.515625 3.023438 -0.257812 C 3.921875 -0.128906 5.914062 0 9 0 L 23.402344 0 C 26.039062 0 27.773438 -0.0625 28.609375 -0.128906 C 29.894531 -0.257812 30.859375 -0.578125 31.4375 -1.027344 C 32.082031 -1.542969 32.53125 -2.441406 32.789062 -3.601562 C 33.046875 -4.5 33.300781 -6.300781 33.6875 -9.066406 L 10.414062 -9.066406 L 12.023438 -20.445312 C 12.152344 -21.085938 12.214844 -21.539062 12.214844 -21.730469 C 12.34375 -22.117188 12.472656 -22.371094 12.601562 -22.5 C 12.730469 -22.628906 12.921875 -22.695312 13.179688 -22.695312 C 13.4375 -22.824219 14.078125 -22.824219 14.980469 -22.824219 L 26.488281 -22.824219 C 28.929688 -22.824219 30.539062 -22.886719 31.375 -22.886719 C 32.917969 -23.015625 34.074219 -23.402344 34.714844 -23.980469 C 35.296875 -24.496094 35.746094 -25.394531 36.003906 -26.617188 C 36.257812 -27.515625 36.515625 -29.25 36.902344 -31.824219 Z M 12.730469 -31.824219" transform="translate(111.047 244.07)"/></g></g></g><g fill="#5271FF"><g><g><path d="M 6.941406 -45.066406 L 5.722656 -36.003906 L 5.144531 -31.886719 L 3.855469 -22.824219 L 3.535156 -20.507812 L 2.25 -11.445312 L 1.929688 -9.066406 L 0.644531 -0.0625 C 3.472656 -0.0625 5.335938 -0.128906 6.234375 -0.191406 C 7.652344 -0.449219 8.613281 -0.898438 9.195312 -1.542969 C 9.707031 -2.1875 10.027344 -3.085938 10.285156 -4.371094 C 10.480469 -5.207031 10.738281 -6.75 11.058594 -9.066406 L 11.378906 -11.445312 L 25.523438 -11.445312 L 25.203125 -9.066406 L 23.914062 -0.0625 C 27.324219 -0.0625 29.507812 -0.191406 30.410156 -0.386719 C 31.503906 -0.644531 32.273438 -1.15625 32.722656 -1.929688 C 33.109375 -2.570312 33.429688 -3.472656 33.625 -4.691406 C 33.816406 -5.464844 34.074219 -6.941406 34.332031 -9.066406 L 34.652344 -11.445312 C 34.714844 -11.894531 34.714844 -12.28125 34.714844 -12.664062 C 34.714844 -13.308594 34.652344 -13.824219 34.460938 -14.273438 C 34.265625 -14.785156 34.007812 -15.171875 33.625 -15.429688 C 33.367188 -15.6875 32.980469 -15.878906 32.464844 -16.007812 C 33.046875 -16.199219 33.558594 -16.457031 33.945312 -16.714844 C 34.332031 -16.972656 34.589844 -17.292969 34.84375 -17.679688 C 35.167969 -18.066406 35.421875 -18.515625 35.550781 -19.03125 C 35.746094 -19.480469 35.875 -19.996094 35.9375 -20.507812 L 37.546875 -31.953125 C 34.84375 -31.953125 33.046875 -31.886719 32.144531 -31.757812 C 30.988281 -31.628906 30.152344 -31.375 29.507812 -30.921875 C 28.867188 -30.410156 28.351562 -29.507812 27.964844 -28.09375 C 27.773438 -27.257812 27.515625 -25.523438 27.128906 -22.886719 L 26.808594 -20.507812 L 12.664062 -20.507812 L 12.988281 -22.824219 L 14.273438 -31.886719 L 14.851562 -36.003906 C 15.109375 -37.800781 15.238281 -39.089844 15.300781 -39.730469 C 15.429688 -40.503906 15.429688 -41.082031 15.429688 -41.53125 C 15.429688 -42.558594 15.300781 -43.265625 14.914062 -43.71875 C 14.59375 -44.296875 13.886719 -44.679688 12.730469 -44.808594 C 11.894531 -45.003906 9.964844 -45.066406 6.941406 -45.066406 Z M 6.941406 -45.066406" transform="translate(147.563 244.07)"/></g></g></g><g fill="#5271FF"><g><g><path d="M 16.074219 -45.003906 C 13.5 -45.003906 11.699219 -45.003906 10.800781 -44.875 C 9.773438 -44.746094 8.9375 -44.554688 8.359375 -44.167969 C 7.585938 -43.71875 7.007812 -42.816406 6.621094 -41.46875 C 6.429688 -40.632812 6.109375 -38.832031 5.65625 -36.003906 L 2.636719 -14.078125 L 0.644531 0 C 3.214844 0 4.949219 -0.0625 5.785156 -0.128906 C 7.328125 -0.320312 8.421875 -0.769531 9.066406 -1.414062 C 9.578125 -1.992188 9.964844 -2.894531 10.222656 -4.113281 C 10.480469 -5.015625 10.738281 -6.621094 11.058594 -9 L 13.308594 -25.394531 Z M 16.074219 -45.003906" transform="translate(184.722 244.07)"/></g></g></g><g fill="#5271FF"><g><g><path d="M 29.316406 -31.886719 L 4.4375 -31.886719 L 4.4375 -30.792969 C 4.4375 -29.125 4.5 -27.835938 4.5 -27.066406 C 4.628906 -25.652344 4.886719 -24.6875 5.273438 -24.109375 C 5.722656 -23.53125 6.492188 -23.144531 7.652344 -22.953125 C 8.421875 -22.886719 10.027344 -22.824219 12.34375 -22.824219 L 26.488281 -22.824219 C 26.421875 -22.117188 26.359375 -21.664062 26.292969 -21.410156 C 26.292969 -21.152344 26.230469 -20.957031 26.101562 -20.828125 C 25.972656 -20.703125 25.78125 -20.574219 25.523438 -20.507812 C 25.394531 -20.507812 25.007812 -20.445312 24.496094 -20.445312 L 11.058594 -20.445312 C 8.679688 -20.445312 7.007812 -20.378906 6.109375 -20.25 C 5.015625 -20.121094 4.179688 -19.738281 3.601562 -19.160156 C 3.085938 -18.644531 2.636719 -17.617188 2.3125 -16.074219 C 2.1875 -15.300781 1.929688 -13.757812 1.605469 -11.445312 L 1.222656 -9.066406 C 0.898438 -6.492188 0.707031 -4.757812 0.644531 -3.855469 L 0.644531 -3.472656 C 0.644531 -2.441406 0.769531 -1.734375 1.15625 -1.222656 C 1.542969 -0.769531 2.1875 -0.449219 3.085938 -0.257812 C 3.984375 -0.128906 5.980469 0 9.066406 0 L 23.015625 0 C 26.230469 0 28.289062 -0.128906 29.1875 -0.257812 C 30.085938 -0.449219 30.792969 -0.707031 31.308594 -1.09375 C 31.886719 -1.542969 32.335938 -2.25 32.59375 -3.148438 C 32.917969 -4.050781 33.300781 -5.980469 33.6875 -9.066406 L 34.589844 -15.621094 L 35.617188 -22.824219 C 35.9375 -25.136719 36.132812 -26.679688 36.132812 -27.453125 C 36.195312 -27.835938 36.195312 -28.09375 36.195312 -28.351562 C 36.195312 -29.703125 35.875 -30.601562 35.230469 -31.050781 C 34.84375 -31.375 34.203125 -31.566406 33.300781 -31.695312 C 32.53125 -31.824219 31.179688 -31.886719 29.316406 -31.886719 Z M 12.214844 -11.445312 L 24.878906 -11.445312 C 24.816406 -10.738281 24.75 -10.285156 24.6875 -10.027344 C 24.625 -9.773438 24.558594 -9.515625 24.429688 -9.386719 C 24.367188 -9.257812 24.238281 -9.195312 23.980469 -9.128906 C 23.851562 -9.128906 23.464844 -9.066406 22.953125 -9.066406 L 10.351562 -9.066406 C 10.480469 -9.578125 10.542969 -9.964844 10.542969 -10.15625 C 10.609375 -10.671875 10.671875 -10.992188 10.800781 -11.121094 C 10.929688 -11.25 11.058594 -11.378906 11.25 -11.378906 C 11.378906 -11.445312 11.699219 -11.445312 12.214844 -11.445312 Z M 12.214844 -11.445312" transform="translate(199.508 244.07)"/></g></g></g><g fill="#5271FF"><g><g><path d="M 3.855469 -22.757812 L 3.535156 -20.445312 L 2.25 -11.378906 L 1.929688 -9 L 0.644531 0 C 3.40625 0 5.207031 -0.0625 6.042969 -0.128906 C 7.199219 -0.320312 8.101562 -0.644531 8.613281 -1.027344 C 9.257812 -1.542969 9.773438 -2.3125 10.027344 -3.40625 C 10.285156 -4.308594 10.671875 -6.171875 11.058594 -9 L 11.378906 -11.378906 L 12.664062 -20.445312 C 12.792969 -21.152344 12.859375 -21.601562 12.859375 -21.792969 C 12.988281 -22.179688 13.179688 -22.4375 13.308594 -22.566406 C 13.5 -22.695312 13.695312 -22.757812 13.949219 -22.757812 C 14.078125 -22.824219 14.273438 -22.824219 14.464844 -22.824219 C 14.722656 -22.824219 15.042969 -22.824219 15.367188 -22.757812 L 27.128906 -22.757812 L 26.808594 -20.445312 L 25.523438 -11.378906 L 25.203125 -9 L 23.914062 0 C 27.066406 0 29.125 -0.128906 30.023438 -0.257812 C 31.117188 -0.515625 31.886719 -0.898438 32.402344 -1.480469 C 32.917969 -1.992188 33.238281 -2.828125 33.496094 -3.855469 C 33.753906 -4.691406 34.007812 -6.429688 34.332031 -9 L 34.652344 -11.378906 L 35.9375 -20.445312 L 36.257812 -22.757812 C 36.644531 -25.585938 36.839844 -27.453125 36.839844 -28.289062 L 36.839844 -28.738281 C 36.773438 -29.832031 36.453125 -30.601562 35.9375 -30.988281 C 35.550781 -31.375 34.910156 -31.566406 34.074219 -31.695312 C 33.300781 -31.824219 32.082031 -31.824219 30.34375 -31.824219 L 12.28125 -31.824219 C 10.609375 -31.824219 9.386719 -31.824219 8.613281 -31.695312 C 7.585938 -31.566406 6.816406 -31.308594 6.300781 -30.921875 C 5.65625 -30.472656 5.144531 -29.636719 4.757812 -28.417969 C 4.566406 -27.582031 4.242188 -25.714844 3.855469 -22.757812 Z M 3.855469 -22.757812" transform="translate(236.281 244.07)"/></g></g></g><g fill="#5271FF"><g><g><path d="M 28.289062 -35.9375 L 27.710938 -31.886719 L 12.730469 -31.886719 C 10.285156 -31.886719 8.550781 -31.824219 7.652344 -31.628906 C 6.621094 -31.503906 5.785156 -31.117188 5.273438 -30.601562 C 4.757812 -30.085938 4.371094 -29.25 4.050781 -28.09375 C 3.855469 -27.257812 3.601562 -25.523438 3.214844 -22.824219 C 2.957031 -21.28125 2.636719 -19.03125 2.1875 -15.945312 C 1.800781 -12.859375 1.480469 -10.609375 1.285156 -9.066406 C 1.027344 -7.007812 0.835938 -5.65625 0.707031 -4.886719 C 0.707031 -4.371094 0.644531 -3.855469 0.644531 -3.472656 C 0.644531 -2.441406 0.898438 -1.671875 1.285156 -1.15625 C 1.671875 -0.769531 2.3125 -0.449219 3.214844 -0.257812 C 4.113281 -0.128906 6.042969 0 9 0 L 23.402344 0 C 26.292969 0 28.222656 -0.0625 29.125 -0.191406 C 30.085938 -0.386719 30.792969 -0.644531 31.308594 -0.964844 C 32.015625 -1.480469 32.53125 -2.441406 32.851562 -3.730469 C 33.109375 -4.566406 33.367188 -6.363281 33.6875 -9.066406 L 34.007812 -11.445312 L 38.703125 -45.003906 C 35.9375 -45.003906 34.136719 -45.003906 33.238281 -44.875 C 32.015625 -44.746094 31.117188 -44.359375 30.539062 -43.847656 C 30.023438 -43.394531 29.574219 -42.558594 29.25 -41.402344 C 28.996094 -40.503906 28.671875 -38.703125 28.289062 -35.9375 Z M 14.53125 -22.824219 L 26.421875 -22.824219 L 24.878906 -11.445312 C 24.75 -10.800781 24.6875 -10.414062 24.558594 -10.15625 C 24.496094 -9.773438 24.367188 -9.515625 24.171875 -9.386719 C 24.042969 -9.257812 23.851562 -9.195312 23.59375 -9.128906 C 23.335938 -9.128906 22.824219 -9.066406 21.921875 -9.066406 L 10.414062 -9.066406 L 12.023438 -20.445312 C 12.152344 -21.085938 12.214844 -21.539062 12.214844 -21.730469 C 12.34375 -22.117188 12.40625 -22.308594 12.535156 -22.4375 C 12.664062 -22.628906 12.921875 -22.757812 13.179688 -22.757812 C 13.4375 -22.824219 13.886719 -22.824219 14.53125 -22.824219 Z M 14.53125 -22.824219" transform="translate(273.698 244.07)"/></g></g></g></svg>