<svg width="440" height="440" viewBox="0 0 440 440" fill="none" xmlns="http://www.w3.org/2000/svg">
<rect width="440" height="440" fill="white"/>
<path d="M352.093 263.489C324.209 354.695 241.131 408.377 167.737 385.939C94.3428 363.5 55.4873 272.538 83.3718 181.332C111.256 90.1263 194.334 36.4435 267.728 58.8823C341.122 81.3212 379.978 172.283 352.093 263.489Z" fill="url(#paint0_radial_101_124)" stroke="black" stroke-width="10"/>
<g filter="url(#filter0_i_101_124)">
<path d="M156.566 207.946C156.566 210.549 155.968 212.938 154.774 215.114C153.579 217.248 151.744 218.976 149.27 220.298C146.795 221.621 143.723 222.282 140.054 222.282H133.27V238.41H122.326V193.482H140.054C143.638 193.482 146.667 194.101 149.142 195.338C151.616 196.576 153.472 198.282 154.71 200.458C155.947 202.634 156.566 205.13 156.566 207.946ZM139.222 213.578C141.312 213.578 142.87 213.088 143.894 212.106C144.918 211.125 145.43 209.738 145.43 207.946C145.43 206.154 144.918 204.768 143.894 203.786C142.87 202.805 141.312 202.314 139.222 202.314H133.27V213.578H139.222ZM190.231 230.474H173.463L170.775 238.41H159.319L175.575 193.482H188.247L204.503 238.41H192.919L190.231 230.474ZM187.415 222.026L181.847 205.578L176.343 222.026H187.415ZM226.283 193.482C231.019 193.482 235.157 194.421 238.699 196.298C242.24 198.176 244.971 200.821 246.891 204.234C248.853 207.605 249.835 211.509 249.835 215.946C249.835 220.341 248.853 224.245 246.891 227.658C244.971 231.072 242.219 233.717 238.635 235.594C235.093 237.472 230.976 238.41 226.283 238.41H209.451V193.482H226.283ZM225.579 228.938C229.717 228.938 232.939 227.808 235.243 225.546C237.547 223.285 238.699 220.085 238.699 215.946C238.699 211.808 237.547 208.586 235.243 206.282C232.939 203.978 229.717 202.826 225.579 202.826H220.395V228.938H225.579ZM266.895 202.25V211.338H281.551V219.786H266.895V229.642H283.471V238.41H255.951V193.482H283.471V202.25H266.895ZM301.52 229.962H315.856V238.41H290.576V193.482H301.52V229.962Z" fill="white"/>
</g>
<g filter="url(#filter1_i_101_124)">
<path d="M134.509 273.946H125.077L123.565 278.41H117.121L126.265 253.138H133.393L142.537 278.41H136.021L134.509 273.946ZM132.925 269.194L129.793 259.942L126.697 269.194H132.925ZM151.368 253.138V268.258C151.368 269.77 151.74 270.934 152.484 271.75C153.228 272.566 154.32 272.974 155.76 272.974C157.2 272.974 158.304 272.566 159.072 271.75C159.84 270.934 160.224 269.77 160.224 268.258V253.138H166.38V268.222C166.38 270.478 165.9 272.386 164.94 273.946C163.98 275.506 162.684 276.682 161.052 277.474C159.444 278.266 157.644 278.662 155.652 278.662C153.66 278.662 151.872 278.278 150.288 277.51C148.728 276.718 147.492 275.542 146.58 273.982C145.668 272.398 145.212 270.478 145.212 268.222V253.138H151.368ZM169.659 265.738C169.659 263.242 170.199 261.022 171.279 259.078C172.359 257.11 173.859 255.586 175.779 254.506C177.723 253.402 179.919 252.85 182.367 252.85C185.367 252.85 187.935 253.642 190.071 255.226C192.207 256.81 193.635 258.97 194.355 261.706H187.587C187.083 260.65 186.363 259.846 185.427 259.294C184.515 258.742 183.471 258.466 182.295 258.466C180.399 258.466 178.863 259.126 177.687 260.446C176.511 261.766 175.923 263.53 175.923 265.738C175.923 267.946 176.511 269.71 177.687 271.03C178.863 272.35 180.399 273.01 182.295 273.01C183.471 273.01 184.515 272.734 185.427 272.182C186.363 271.63 187.083 270.826 187.587 269.77H194.355C193.635 272.506 192.207 274.666 190.071 276.25C187.935 277.81 185.367 278.59 182.367 278.59C179.919 278.59 177.723 278.05 175.779 276.97C173.859 275.866 172.359 274.342 171.279 272.398C170.199 270.454 169.659 268.234 169.659 265.738ZM212.777 278.41L204.281 267.25V278.41H198.125V253.138H204.281V264.226L212.705 253.138H219.941L210.149 265.522L220.301 278.41H212.777ZM229.382 273.658H237.446V278.41H223.226V253.138H229.382V273.658ZM256.115 273.946H246.683L245.171 278.41H238.727L247.871 253.138H254.999L264.143 278.41H257.627L256.115 273.946ZM254.531 269.194L251.399 259.942L248.303 269.194H254.531ZM289.534 278.41H283.378L273.082 262.822V278.41H266.926V253.138H273.082L283.378 268.798V253.138H289.534V278.41ZM303.464 253.138C306.128 253.138 308.456 253.666 310.448 254.722C312.44 255.778 313.976 257.266 315.056 259.186C316.16 261.082 316.712 263.278 316.712 265.774C316.712 268.246 316.16 270.442 315.056 272.362C313.976 274.282 312.428 275.77 310.412 276.826C308.42 277.882 306.104 278.41 303.464 278.41H293.996V253.138H303.464ZM303.068 273.082C305.396 273.082 307.208 272.446 308.504 271.174C309.8 269.902 310.448 268.102 310.448 265.774C310.448 263.446 309.8 261.634 308.504 260.338C307.208 259.042 305.396 258.394 303.068 258.394H300.152V273.082H303.068Z" fill="white"/>
</g>
<g style="mix-blend-mode:overlay" filter="url(#filter2_i_101_124)">
<path d="M202 56C202 56 196 91.5 202 111.5C208 131.5 214.5 142.5 238.5 150.5C262.5 158.5 276 153.614 294.5 141C313 128.386 328.5 105 328.5 105" stroke="white" stroke-width="10"/>
</g>
<g style="mix-blend-mode:overlay" filter="url(#filter3_i_101_124)">
<path d="M226.327 389.881C226.327 389.881 233.841 361.137 228.708 344.452C223.574 327.767 217.554 318.423 193.931 310.618C170.307 302.814 156.615 306.107 137.6 315.464C118.584 324.82 102.102 343.152 102.102 343.152" stroke="white" stroke-width="10"/>
</g>
<defs>
<filter id="filter0_i_101_124" x="122.326" y="193.482" width="193.53" height="48.928" filterUnits="userSpaceOnUse" color-interpolation-filters="sRGB">
<feFlood flood-opacity="0" result="BackgroundImageFix"/>
<feBlend mode="normal" in="SourceGraphic" in2="BackgroundImageFix" result="shape"/>
<feColorMatrix in="SourceAlpha" type="matrix" values="0 0 0 0 0 0 0 0 0 0 0 0 0 0 0 0 0 0 127 0" result="hardAlpha"/>
<feOffset dy="4"/>
<feGaussianBlur stdDeviation="2"/>
<feComposite in2="hardAlpha" operator="arithmetic" k2="-1" k3="1"/>
<feColorMatrix type="matrix" values="0 0 0 0 0 0 0 0 0 0 0 0 0 0 0 0 0 0 0.25 0"/>
<feBlend mode="normal" in2="shape" result="effect1_innerShadow_101_124"/>
</filter>
<filter id="filter1_i_101_124" x="117.121" y="252.85" width="199.591" height="29.812" filterUnits="userSpaceOnUse" color-interpolation-filters="sRGB">
<feFlood flood-opacity="0" result="BackgroundImageFix"/>
<feBlend mode="normal" in="SourceGraphic" in2="BackgroundImageFix" result="shape"/>
<feColorMatrix in="SourceAlpha" type="matrix" values="0 0 0 0 0 0 0 0 0 0 0 0 0 0 0 0 0 0 127 0" result="hardAlpha"/>
<feOffset dy="4"/>
<feGaussianBlur stdDeviation="2"/>
<feComposite in2="hardAlpha" operator="arithmetic" k2="-1" k3="1"/>
<feColorMatrix type="matrix" values="0 0 0 0 0 0 0 0 0 0 0 0 0 0 0 0 0 0 0.25 0"/>
<feBlend mode="normal" in2="shape" result="effect1_innerShadow_101_124"/>
</filter>
<filter id="filter2_i_101_124" x="194.333" y="55.1683" width="138.334" height="108.228" filterUnits="userSpaceOnUse" color-interpolation-filters="sRGB">
<feFlood flood-opacity="0" result="BackgroundImageFix"/>
<feBlend mode="normal" in="SourceGraphic" in2="BackgroundImageFix" result="shape"/>
<feColorMatrix in="SourceAlpha" type="matrix" values="0 0 0 0 0 0 0 0 0 0 0 0 0 0 0 0 0 0 127 0" result="hardAlpha"/>
<feOffset dy="4"/>
<feGaussianBlur stdDeviation="2"/>
<feComposite in2="hardAlpha" operator="arithmetic" k2="-1" k3="1"/>
<feColorMatrix type="matrix" values="0 0 0 0 0 0 0 0 0 0 0 0 0 0 0 0 0 0 0.25 0"/>
<feBlend mode="normal" in2="shape" result="effect1_innerShadow_101_124"/>
</filter>
<filter id="filter3_i_101_124" x="98.3851" y="301.252" width="137.117" height="93.8925" filterUnits="userSpaceOnUse" color-interpolation-filters="sRGB">
<feFlood flood-opacity="0" result="BackgroundImageFix"/>
<feBlend mode="normal" in="SourceGraphic" in2="BackgroundImageFix" result="shape"/>
<feColorMatrix in="SourceAlpha" type="matrix" values="0 0 0 0 0 0 0 0 0 0 0 0 0 0 0 0 0 0 127 0" result="hardAlpha"/>
<feOffset dy="4"/>
<feGaussianBlur stdDeviation="2"/>
<feComposite in2="hardAlpha" operator="arithmetic" k2="-1" k3="1"/>
<feColorMatrix type="matrix" values="0 0 0 0 0 0 0 0 0 0 0 0 0 0 0 0 0 0 0.25 0"/>
<feBlend mode="normal" in2="shape" result="effect1_innerShadow_101_124"/>
</filter>
<radialGradient id="paint0_radial_101_124" cx="0" cy="0" r="1" gradientUnits="userSpaceOnUse" gradientTransform="translate(315.733 66.9105) rotate(123.144) scale(378.6 312.99)">
<stop stop-color="#00ADD2"/>
<stop offset="1" stop-color="#032188"/>
</radialGradient>
</defs>
</svg>
