<svg width="382" height="423" viewBox="0 0 382 423" fill="none" xmlns="http://www.w3.org/2000/svg">
<path d="M325.093 252.489C297.209 343.695 214.131 397.377 140.737 374.939C67.3428 352.5 28.4873 261.538 56.3718 170.332C84.2562 79.1263 167.334 25.4435 240.728 47.8823C314.122 70.3212 352.978 161.283 325.093 252.489Z" fill="url(#paint0_radial_101_125)" stroke="black" stroke-width="10"/>
<g filter="url(#filter0_i_101_125)">
<path d="M129.566 196.946C129.566 199.549 128.968 201.938 127.774 204.114C126.579 206.248 124.744 207.976 122.27 209.298C119.795 210.621 116.723 211.282 113.054 211.282H106.27V227.41H95.3256V182.482H113.054C116.638 182.482 119.667 183.101 122.142 184.338C124.616 185.576 126.472 187.282 127.71 189.458C128.947 191.634 129.566 194.13 129.566 196.946ZM112.222 202.578C114.312 202.578 115.87 202.088 116.894 201.106C117.918 200.125 118.43 198.738 118.43 196.946C118.43 195.154 117.918 193.768 116.894 192.786C115.87 191.805 114.312 191.314 112.222 191.314H106.27V202.578H112.222ZM163.231 219.474H146.463L143.775 227.41H132.319L148.575 182.482H161.247L177.503 227.41H165.919L163.231 219.474ZM160.415 211.026L154.847 194.578L149.343 211.026H160.415ZM199.283 182.482C204.019 182.482 208.157 183.421 211.699 185.298C215.24 187.176 217.971 189.821 219.891 193.234C221.853 196.605 222.835 200.509 222.835 204.946C222.835 209.341 221.853 213.245 219.891 216.658C217.971 220.072 215.219 222.717 211.635 224.594C208.093 226.472 203.976 227.41 199.283 227.41H182.451V182.482H199.283ZM198.579 217.938C202.717 217.938 205.939 216.808 208.243 214.546C210.547 212.285 211.699 209.085 211.699 204.946C211.699 200.808 210.547 197.586 208.243 195.282C205.939 192.978 202.717 191.826 198.579 191.826H193.395V217.938H198.579ZM239.895 191.25V200.338H254.551V208.786H239.895V218.642H256.471V227.41H228.951V182.482H256.471V191.25H239.895ZM274.52 218.962H288.856V227.41H263.576V182.482H274.52V218.962Z" fill="white"/>
</g>
<g filter="url(#filter1_i_101_125)">
<path d="M107.509 262.946H98.0771L96.5651 267.41H90.1211L99.2651 242.138H106.393L115.537 267.41H109.021L107.509 262.946ZM105.925 258.194L102.793 248.942L99.6971 258.194H105.925ZM124.368 242.138V257.258C124.368 258.77 124.74 259.934 125.484 260.75C126.228 261.566 127.32 261.974 128.76 261.974C130.2 261.974 131.304 261.566 132.072 260.75C132.84 259.934 133.224 258.77 133.224 257.258V242.138H139.38V257.222C139.38 259.478 138.9 261.386 137.94 262.946C136.98 264.506 135.684 265.682 134.052 266.474C132.444 267.266 130.644 267.662 128.652 267.662C126.66 267.662 124.872 267.278 123.288 266.51C121.728 265.718 120.492 264.542 119.58 262.982C118.668 261.398 118.212 259.478 118.212 257.222V242.138H124.368ZM142.659 254.738C142.659 252.242 143.199 250.022 144.279 248.078C145.359 246.11 146.859 244.586 148.779 243.506C150.723 242.402 152.919 241.85 155.367 241.85C158.367 241.85 160.935 242.642 163.071 244.226C165.207 245.81 166.635 247.97 167.355 250.706H160.587C160.083 249.65 159.363 248.846 158.427 248.294C157.515 247.742 156.471 247.466 155.295 247.466C153.399 247.466 151.863 248.126 150.687 249.446C149.511 250.766 148.923 252.53 148.923 254.738C148.923 256.946 149.511 258.71 150.687 260.03C151.863 261.35 153.399 262.01 155.295 262.01C156.471 262.01 157.515 261.734 158.427 261.182C159.363 260.63 160.083 259.826 160.587 258.77H167.355C166.635 261.506 165.207 263.666 163.071 265.25C160.935 266.81 158.367 267.59 155.367 267.59C152.919 267.59 150.723 267.05 148.779 265.97C146.859 264.866 145.359 263.342 144.279 261.398C143.199 259.454 142.659 257.234 142.659 254.738ZM185.777 267.41L177.281 256.25V267.41H171.125V242.138H177.281V253.226L185.705 242.138H192.941L183.149 254.522L193.301 267.41H185.777ZM202.382 262.658H210.446V267.41H196.226V242.138H202.382V262.658ZM229.115 262.946H219.683L218.171 267.41H211.727L220.871 242.138H227.999L237.143 267.41H230.627L229.115 262.946ZM227.531 258.194L224.399 248.942L221.303 258.194H227.531ZM262.534 267.41H256.378L246.082 251.822V267.41H239.926V242.138H246.082L256.378 257.798V242.138H262.534V267.41ZM276.464 242.138C279.128 242.138 281.456 242.666 283.448 243.722C285.44 244.778 286.976 246.266 288.056 248.186C289.16 250.082 289.712 252.278 289.712 254.774C289.712 257.246 289.16 259.442 288.056 261.362C286.976 263.282 285.428 264.77 283.412 265.826C281.42 266.882 279.104 267.41 276.464 267.41H266.996V242.138H276.464ZM276.068 262.082C278.396 262.082 280.208 261.446 281.504 260.174C282.8 258.902 283.448 257.102 283.448 254.774C283.448 252.446 282.8 250.634 281.504 249.338C280.208 248.042 278.396 247.394 276.068 247.394H273.152V262.082H276.068Z" fill="white"/>
</g>
<g style="mix-blend-mode:overlay" filter="url(#filter2_i_101_125)">
<path d="M175 45C175 45 169 80.5 175 100.5C181 120.5 187.5 131.5 211.5 139.5C235.5 147.5 249 142.614 267.5 130C286 117.386 301.5 94 301.5 94" stroke="white" stroke-width="10"/>
</g>
<g style="mix-blend-mode:overlay" filter="url(#filter3_i_101_125)">
<path d="M199.327 378.881C199.327 378.881 206.841 350.137 201.708 333.452C196.574 316.767 190.554 307.423 166.931 299.618C143.307 291.814 129.615 295.107 110.6 304.464C91.584 313.82 75.102 332.152 75.102 332.152" stroke="white" stroke-width="10"/>
</g>
<defs>
<filter id="filter0_i_101_125" x="95.3256" y="182.482" width="193.53" height="48.928" filterUnits="userSpaceOnUse" color-interpolation-filters="sRGB">
<feFlood flood-opacity="0" result="BackgroundImageFix"/>
<feBlend mode="normal" in="SourceGraphic" in2="BackgroundImageFix" result="shape"/>
<feColorMatrix in="SourceAlpha" type="matrix" values="0 0 0 0 0 0 0 0 0 0 0 0 0 0 0 0 0 0 127 0" result="hardAlpha"/>
<feOffset dy="4"/>
<feGaussianBlur stdDeviation="2"/>
<feComposite in2="hardAlpha" operator="arithmetic" k2="-1" k3="1"/>
<feColorMatrix type="matrix" values="0 0 0 0 0 0 0 0 0 0 0 0 0 0 0 0 0 0 0.25 0"/>
<feBlend mode="normal" in2="shape" result="effect1_innerShadow_101_125"/>
</filter>
<filter id="filter1_i_101_125" x="90.1211" y="241.85" width="199.591" height="29.812" filterUnits="userSpaceOnUse" color-interpolation-filters="sRGB">
<feFlood flood-opacity="0" result="BackgroundImageFix"/>
<feBlend mode="normal" in="SourceGraphic" in2="BackgroundImageFix" result="shape"/>
<feColorMatrix in="SourceAlpha" type="matrix" values="0 0 0 0 0 0 0 0 0 0 0 0 0 0 0 0 0 0 127 0" result="hardAlpha"/>
<feOffset dy="4"/>
<feGaussianBlur stdDeviation="2"/>
<feComposite in2="hardAlpha" operator="arithmetic" k2="-1" k3="1"/>
<feColorMatrix type="matrix" values="0 0 0 0 0 0 0 0 0 0 0 0 0 0 0 0 0 0 0.25 0"/>
<feBlend mode="normal" in2="shape" result="effect1_innerShadow_101_125"/>
</filter>
<filter id="filter2_i_101_125" x="167.333" y="44.1683" width="138.334" height="108.228" filterUnits="userSpaceOnUse" color-interpolation-filters="sRGB">
<feFlood flood-opacity="0" result="BackgroundImageFix"/>
<feBlend mode="normal" in="SourceGraphic" in2="BackgroundImageFix" result="shape"/>
<feColorMatrix in="SourceAlpha" type="matrix" values="0 0 0 0 0 0 0 0 0 0 0 0 0 0 0 0 0 0 127 0" result="hardAlpha"/>
<feOffset dy="4"/>
<feGaussianBlur stdDeviation="2"/>
<feComposite in2="hardAlpha" operator="arithmetic" k2="-1" k3="1"/>
<feColorMatrix type="matrix" values="0 0 0 0 0 0 0 0 0 0 0 0 0 0 0 0 0 0 0.25 0"/>
<feBlend mode="normal" in2="shape" result="effect1_innerShadow_101_125"/>
</filter>
<filter id="filter3_i_101_125" x="71.3851" y="290.252" width="137.117" height="93.8925" filterUnits="userSpaceOnUse" color-interpolation-filters="sRGB">
<feFlood flood-opacity="0" result="BackgroundImageFix"/>
<feBlend mode="normal" in="SourceGraphic" in2="BackgroundImageFix" result="shape"/>
<feColorMatrix in="SourceAlpha" type="matrix" values="0 0 0 0 0 0 0 0 0 0 0 0 0 0 0 0 0 0 127 0" result="hardAlpha"/>
<feOffset dy="4"/>
<feGaussianBlur stdDeviation="2"/>
<feComposite in2="hardAlpha" operator="arithmetic" k2="-1" k3="1"/>
<feColorMatrix type="matrix" values="0 0 0 0 0 0 0 0 0 0 0 0 0 0 0 0 0 0 0.25 0"/>
<feBlend mode="normal" in2="shape" result="effect1_innerShadow_101_125"/>
</filter>
<radialGradient id="paint0_radial_101_125" cx="0" cy="0" r="1" gradientUnits="userSpaceOnUse" gradientTransform="translate(288.733 55.9105) rotate(123.144) scale(378.6 312.99)">
<stop stop-color="#00ADD2"/>
<stop offset="1" stop-color="#032188"/>
</radialGradient>
</defs>
</svg>
