<svg width="275" height="119" viewBox="0 0 275 119" fill="none" xmlns="http://www.w3.org/2000/svg">
<path d="M273.324 37.5234C273.324 37.5703 273.324 37.6133 273.324 37.6641C273.312 41.957 272.559 46.0781 271.191 49.9023C271.008 50.418 270.813 50.9219 270.602 51.4258C268.613 56.2969 265.605 60.6445 261.852 64.207C258.09 67.7695 253.582 70.5391 248.582 72.2695C247.301 72.7109 245.984 73.0859 244.645 73.3867C244.613 73.3945 244.586 73.3984 244.559 73.4062C243.062 73.7383 241.543 73.9766 239.988 74.1172C238.871 74.2266 237.727 74.2773 236.578 74.2773C232.816 74.2773 229.184 73.7148 225.762 72.6602C224.895 72.3945 224.043 72.0977 223.207 71.7695C215.652 68.8125 209.312 63.4375 205.148 56.5898C204.457 55.4531 203.824 54.2773 203.258 53.0586C201.16 48.5781 199.945 43.6016 199.828 38.3516C199.824 38.0742 199.82 37.8047 199.82 37.5273C199.82 37.25 199.824 36.9805 199.828 36.707C200.055 26.2148 204.688 16.8047 211.945 10.25C212.523 9.72656 213.117 9.22266 213.727 8.73828C214.094 8.44531 214.461 8.16406 214.844 7.88672C216.102 6.96094 217.426 6.11328 218.797 5.35156C224.07 2.42969 230.129 0.769531 236.578 0.769531C239.344 0.769531 242.043 1.07813 244.633 1.66016C245.98 1.96094 247.293 2.33594 248.582 2.78125C257.215 5.76172 264.387 11.8672 268.75 19.75C269.613 21.3008 270.359 22.918 270.984 24.5977C271.031 24.7148 271.074 24.832 271.117 24.9492V24.9531C271.41 25.75 271.676 26.5547 271.91 27.375C272.688 30.0859 273.16 32.9297 273.289 35.8555C273.313 36.4062 273.324 36.9648 273.324 37.5234Z" fill="#004AAD"/>
<path d="M220.699 67.0547C221.457 67.0547 221.457 65.8711 220.699 65.8711C219.941 65.8711 219.938 67.0547 220.699 67.0547Z" fill="#004AAD"/>
<path d="M216.641 64.5664C217.402 64.5664 217.402 63.3867 216.641 63.3867C215.879 63.3867 215.879 64.5664 216.641 64.5664Z" fill="#004AAD"/>
<path d="M220.305 62.3398C221.066 62.3398 221.066 61.1602 220.305 61.1602C219.547 61.1602 219.547 62.3398 220.305 62.3398Z" fill="#004AAD"/>
<path d="M213.891 59.0664C213.848 59.0664 213.805 59.0664 213.762 59.0664C213.453 59.0664 213.156 59.3398 213.172 59.6562C213.187 59.9766 213.43 60.25 213.762 60.25C213.805 60.25 213.848 60.25 213.891 60.25C214.199 60.25 214.496 59.9766 214.484 59.6562C214.469 59.3398 214.223 59.0664 213.891 59.0664Z" fill="#004AAD"/>
<path d="M217.426 58.5469C218.188 58.5469 218.188 57.3633 217.426 57.3633C216.668 57.3633 216.664 58.5469 217.426 58.5469Z" fill="#004AAD"/>
<path d="M209.836 55.9258C210.598 55.9258 210.598 54.7461 209.836 54.7461C209.074 54.75 209.074 55.9258 209.836 55.9258Z" fill="#004AAD"/>
<path d="M205.906 52.6562C206.668 52.6562 206.668 51.4766 205.906 51.4766C205.148 51.4766 205.148 52.6562 205.906 52.6562Z" fill="#004AAD"/>
<path d="M225.277 66.3984C226.039 66.3984 226.039 65.2188 225.277 65.2188C224.52 65.2188 224.52 66.3984 225.277 66.3984Z" fill="#004AAD"/>
<path d="M223.578 69.4062C224.34 69.4062 224.34 68.2266 223.578 68.2266C222.816 68.2305 222.816 69.4062 223.578 69.4062Z" fill="#004AAD"/>
<path d="M234.051 71.7656C234.809 71.7656 234.809 70.582 234.051 70.582C233.289 70.582 233.289 71.7656 234.051 71.7656Z" fill="#004AAD"/>
<path d="M239.547 71.1094C240.309 71.1094 240.309 69.9297 239.547 69.9297C238.785 69.9297 238.785 71.1094 239.547 71.1094Z" fill="#004AAD"/>
<path d="M243.996 71.8984C244.754 71.8984 244.754 70.7148 243.996 70.7148C243.238 70.7148 243.234 71.8984 243.996 71.8984Z" fill="#004AAD"/>
<path d="M209.637 58.6094C209.637 58.6523 209.637 58.6953 209.637 58.7383C209.637 59.0469 209.906 59.3437 210.227 59.3281C210.547 59.3164 210.816 59.0703 210.816 58.7383C210.816 58.6953 210.816 58.6523 210.816 58.6094C210.816 58.3008 210.547 58.0039 210.227 58.0195C209.906 58.0312 209.637 58.2773 209.637 58.6094Z" fill="#004AAD"/>
<path d="M212.91 54.8164C212.91 54.8594 212.91 54.9023 212.91 54.9453C212.91 55.2539 213.18 55.5508 213.5 55.5352C213.82 55.5195 214.09 55.2773 214.09 54.9453C214.09 54.9023 214.09 54.8594 214.09 54.8164C214.09 54.5078 213.82 54.2109 213.5 54.2227C213.18 54.2383 212.91 54.4844 212.91 54.8164Z" fill="#004AAD"/>
<path d="M203.812 48.3359C204.574 48.3359 204.574 47.1562 203.812 47.1562C203.055 47.1562 203.055 48.3359 203.812 48.3359Z" fill="#004AAD"/>
<path d="M229.406 67.9023C229.406 67.8594 229.406 67.8164 229.406 67.7734C229.406 67.4648 229.133 67.168 228.812 67.1836C228.492 67.1992 228.223 67.4414 228.223 67.7734C228.223 67.8164 228.223 67.8594 228.223 67.9023C228.223 68.2109 228.492 68.5078 228.812 68.4961C229.133 68.4805 229.406 68.2305 229.406 67.9023Z" fill="#004AAD"/>
<path d="M270.984 24.5977C270.617 24.4375 270.242 24.293 269.867 24.1641C264.879 22.4141 259.242 22.7891 254.41 25.1836C252.688 26.0352 251.09 27.1836 249.41 28.3984C246.363 30.582 243.219 32.8437 239.09 33.4805C232.723 34.457 227.047 32.6016 222.684 28.1172C218.008 23.3242 215.137 15.6289 214.836 7.88672C216.098 6.95703 217.418 6.10938 218.793 5.35156C218.559 12.1523 220.59 20.3281 225.5 25.3672C228.992 28.957 233.359 30.3711 238.488 29.582C241.684 29.0977 244.316 27.2031 247.109 25.1992C248.852 23.9492 250.652 22.6523 252.664 21.6562C257.672 19.1758 263.406 18.5156 268.746 19.7461C269.609 21.3008 270.359 22.918 270.984 24.5977Z" fill="white"/>
<path d="M244.555 73.4023C243.062 73.7344 241.539 73.9766 239.988 74.1172C239.656 73.668 239.352 73.207 239.082 72.75C238.137 71.1641 237.484 69.4883 236.855 67.8711C236.219 66.2344 235.617 64.6875 234.762 63.3359C233.211 60.8828 231.137 58.7851 228.754 57.2695C221.598 52.7109 213.004 54.1562 205.145 56.582C204.453 55.4453 203.82 54.2695 203.254 53.0547C211.93 50.3047 222.145 48.3906 230.867 53.9492C233.734 55.7734 236.23 58.2969 238.082 61.2344C239.141 62.9101 239.836 64.707 240.516 66.4414C241.117 67.9766 241.68 69.4297 242.461 70.7305C243.02 71.6641 243.73 72.6055 244.555 73.4023Z" fill="white"/>
<path d="M16.3416 65.4952L17.7244 57.253H33.8611C36.4236 57.253 38.1541 57.1827 39.1228 57.046C40.3689 56.8389 41.2673 56.4913 41.822 55.9366C42.5173 55.3155 43.0017 54.2764 43.2791 52.8194C43.4861 51.8507 43.7634 50.1202 44.1072 47.4874C45.2869 39.2491 45.9783 34.3311 46.1853 32.671C46.6033 30.3155 46.8103 28.7921 46.8103 27.96C46.8767 27.4093 46.8767 26.9913 46.8767 26.6475C46.8767 25.8155 46.8103 25.1241 46.533 24.6358C46.115 23.6671 44.8025 23.1827 42.6541 23.046C41.822 22.9053 40.2322 22.9053 37.8767 22.9053H22.2947C19.5955 22.9053 17.7244 22.9757 16.7556 23.1124C15.0955 23.253 13.9158 23.7374 13.2244 24.5694C12.74 25.1905 12.322 26.2296 11.9783 27.753C11.8376 28.585 11.6306 30.1788 11.2869 32.671L10.9392 35.2335L7.89233 57.253L6.64624 67.0186C6.57593 67.5694 6.50562 67.9171 6.43921 68.1241C6.3689 68.4014 6.22827 68.7491 5.95483 69.0264C5.81421 69.3038 5.53687 69.5772 5.1228 69.9952C4.84546 70.2725 4.29077 70.6866 3.45874 71.378H6.78296C7.75171 71.378 8.58374 71.3116 9.27515 71.2413C10.3845 71.1007 11.2869 71.0343 12.0486 70.7569C12.8767 70.4796 13.5017 70.1319 13.9861 69.7882C14.7478 69.2335 15.3025 68.4718 15.7166 67.6397C15.9939 67.0186 16.2009 66.3233 16.3416 65.4952ZM19.0408 47.4874L20.7712 35.2335C20.9119 34.5382 21.0486 34.0538 21.1189 33.8468C21.2556 33.4327 21.3259 33.2257 21.4626 33.085C21.6736 32.878 22.0173 32.7413 22.4353 32.7413C22.7126 32.671 23.197 32.671 23.9587 32.671H36.3533L34.6228 44.9952C34.5525 45.6202 34.4822 46.0343 34.4119 46.3116C34.3455 46.6593 34.2048 46.9366 33.9978 47.1436C33.8611 47.2139 33.7205 47.2803 33.5134 47.421C33.3767 47.421 33.1658 47.421 32.8884 47.4874H19.0408Z" fill="#004AAD"/>
<path d="M79.0791 22.9053H52.2784V24.085C52.2784 25.8858 52.3487 27.2686 52.3487 28.1007C52.4854 29.6241 52.7627 30.6632 53.1807 31.2843C53.6651 31.9093 54.4932 32.3233 55.7432 32.5303C56.5713 32.6007 58.3018 32.671 60.7979 32.671H76.0323C75.9619 33.4327 75.8916 33.9171 75.8213 34.1944C75.8213 34.4718 75.7549 34.6788 75.6143 34.8155C75.4776 34.9561 75.2705 35.0929 74.9932 35.1632C74.8526 35.1632 74.4385 35.2335 73.8838 35.2335H59.4112C56.8487 35.2335 55.0479 35.2999 54.0791 35.4405C52.9034 35.5772 52.001 35.9952 51.3799 36.6163C50.8252 37.171 50.3409 38.2803 49.9932 39.9405C49.8565 40.7725 49.5791 42.4327 49.2315 44.9288L48.8174 47.4874C48.4698 50.2608 48.2627 52.128 48.1924 53.0968V53.5147C48.1924 54.6202 48.333 55.3819 48.7471 55.9366C49.1612 56.421 49.8565 56.7686 50.8252 56.9757C51.794 57.1163 53.9424 57.253 57.2666 57.253H72.2901C75.7549 57.253 77.9698 57.1163 78.9385 56.9757C79.9073 56.7686 80.669 56.4913 81.2237 56.0772C81.8487 55.5928 82.333 54.8311 82.6104 53.8585C82.9541 52.8897 83.3721 50.8116 83.7862 47.4874L84.7549 40.4249L85.8643 32.671C86.2119 30.1788 86.419 28.5147 86.419 27.6827C86.4893 27.2686 86.4893 26.9913 86.4893 26.7139C86.4893 25.2608 86.1416 24.2921 85.4502 23.8077C85.0323 23.46 84.3409 23.253 83.3721 23.1124C82.5401 22.9757 81.0869 22.9053 79.0791 22.9053ZM60.6573 44.9288H74.2979C74.2315 45.6905 74.1612 46.1749 74.0909 46.4522C74.0244 46.7257 73.9541 47.003 73.8135 47.1436C73.7471 47.2803 73.6065 47.3507 73.3291 47.421C73.1924 47.421 72.7744 47.4874 72.2237 47.4874H58.6494C58.7901 46.9366 58.8565 46.5186 58.8565 46.3116C58.9268 45.7569 58.9971 45.4132 59.1338 45.2725C59.2744 45.1358 59.4112 44.9952 59.6182 44.9952C59.7588 44.9288 60.1026 44.9288 60.6573 44.9288Z" fill="#004AAD"/>
<path d="M117.579 18.5421L116.954 22.9053H100.821C98.1881 22.9053 96.3209 22.9757 95.3522 23.1827C94.2428 23.3233 93.3405 23.7374 92.7897 24.2921C92.235 24.8468 91.817 25.7452 91.4733 26.9913C91.2662 27.8936 90.9889 29.7608 90.5709 32.671C90.2936 34.3311 89.9498 36.7569 89.4655 40.0811C89.0475 43.4053 88.7037 45.8272 88.4967 47.4874C88.2194 49.7061 88.0084 51.1593 87.8717 51.9913C87.8717 52.546 87.8014 53.0968 87.8014 53.5147C87.8014 54.6202 88.0787 55.4522 88.4967 56.0069C88.9108 56.421 89.6022 56.7686 90.5709 56.9757C91.5436 57.1163 93.6178 57.253 96.8053 57.253H112.317C115.43 57.253 117.508 57.1827 118.477 57.046C119.516 56.8389 120.278 56.5616 120.833 56.2139C121.594 55.6593 122.149 54.6202 122.497 53.2374C122.774 52.335 123.047 50.3975 123.395 47.4874L123.743 44.9288L128.797 8.78035C125.821 8.78035 123.88 8.78035 122.911 8.91707C121.594 9.05769 120.626 9.47176 120.001 10.0264C119.45 10.5108 118.965 11.4093 118.618 12.6593C118.34 13.628 117.993 15.5655 117.579 18.5421ZM102.758 32.671H115.571L113.907 44.9288C113.77 45.6202 113.7 46.0343 113.563 46.3116C113.493 46.7257 113.356 47.003 113.145 47.1436C113.008 47.2803 112.801 47.3507 112.524 47.421C112.247 47.421 111.692 47.4874 110.723 47.4874H98.3287L100.059 35.2335C100.196 34.5382 100.266 34.0538 100.266 33.8468C100.407 33.4327 100.473 33.2257 100.614 33.085C100.751 32.878 101.028 32.7413 101.305 32.7413C101.583 32.671 102.067 32.671 102.758 32.671Z" fill="#004AAD"/>
<path d="M142.162 22.9053C138.975 22.9053 136.897 22.9757 135.928 23.1124C134.682 23.253 133.713 23.6671 133.022 24.2921C132.397 24.8468 131.912 26.0225 131.565 27.6827C131.428 28.5147 131.151 30.1085 130.737 32.6007L128.658 47.421C128.311 50.1905 128.104 51.9913 128.033 52.96V53.4444C128.033 54.4132 128.174 55.1046 128.451 55.5928C128.865 56.2139 129.557 56.628 130.526 56.9053C131.498 57.046 133.299 57.1827 136.069 57.1827H162.244V56.0772C162.244 53.9991 162.244 52.6124 162.104 51.7843C162.033 50.2608 161.756 49.2882 161.205 48.7374C160.787 48.1827 160.026 47.835 158.92 47.6983C158.158 47.5577 156.424 47.4874 153.725 47.4874H138.49C138.631 46.7257 138.697 46.2413 138.697 46.0343C138.768 45.6202 138.838 45.3428 138.975 45.2022C139.115 45.0655 139.322 44.9952 139.529 44.9952C139.737 44.9288 140.084 44.9288 140.569 44.9288H155.112C157.533 44.9288 159.197 44.8585 160.096 44.7178C161.483 44.5811 162.451 44.1671 163.072 43.6124C163.627 42.9874 164.112 42.0186 164.389 40.7022C164.666 39.8038 164.944 38.003 165.291 35.2335L165.705 32.6007C165.983 30.3858 166.19 28.9327 166.26 28.171C166.33 27.546 166.33 27.0616 166.33 26.6475C166.33 25.2608 166.053 24.2921 165.358 23.8077C164.807 23.3897 163.768 23.1124 162.244 22.9757C161.412 22.9054 159.748 22.9053 157.256 22.9053H142.162ZM142.299 32.671H155.803C155.733 33.4327 155.662 33.9874 155.596 34.2647C155.596 34.5382 155.526 34.6788 155.389 34.8155C155.248 34.9561 154.971 35.0929 154.557 35.1632H140.221C140.362 34.3311 140.428 33.8468 140.428 33.6397C140.569 33.3624 140.639 33.1553 140.705 33.0147C140.846 32.878 140.983 32.7413 141.123 32.7413C141.26 32.671 141.678 32.671 142.299 32.671Z" fill="#004AAD"/>
<path d="M184.263 8.78035C181.493 8.78035 179.552 8.78035 178.583 8.91707C177.477 9.05769 176.575 9.26473 175.954 9.67879C175.122 10.1632 174.497 11.1358 174.083 12.5889C173.876 13.4874 173.528 15.4288 173.044 18.4757L169.79 42.0889L167.641 57.253C170.411 57.253 172.282 57.1827 173.18 57.1163C174.845 56.9054 176.02 56.421 176.716 55.7296C177.266 55.1046 177.684 54.1358 177.962 52.8194C178.239 51.8507 178.513 50.1202 178.86 47.5577L181.286 29.9014L184.263 8.78035Z" fill="#004AAD"/>
<path d="M28.8164 86.1833H3.9375V87.277C3.9375 88.945 4 90.2341 4 91.0036C4.12891 92.4177 4.38672 93.3825 4.77344 93.9606C5.22266 94.5388 5.99219 94.9255 7.15234 95.1169C7.92188 95.1833 9.52734 95.2458 11.8438 95.2458H25.9883C25.9219 95.9528 25.8594 96.4059 25.793 96.6599C25.793 96.9177 25.7305 97.113 25.6016 97.2419C25.4727 97.3669 25.2812 97.4958 25.0234 97.5622C24.8945 97.5622 24.5078 97.6247 23.9961 97.6247H10.5586C8.17969 97.6247 6.50781 97.6911 5.60938 97.82C4.51562 97.9489 3.67969 98.3317 3.10156 98.9099C2.58594 99.4255 2.13672 100.453 1.8125 101.996C1.6875 102.769 1.42969 104.312 1.10547 106.625L0.722656 109.004C0.398438 111.578 0.207031 113.312 0.144531 114.215V114.597C0.144531 115.629 0.269531 116.336 0.65625 116.847C1.04297 117.3 1.6875 117.621 2.58594 117.812C3.48438 117.941 5.48047 118.07 8.56641 118.07H22.5156C25.7305 118.07 27.7891 117.941 28.6875 117.812C29.5859 117.621 30.293 117.363 30.8086 116.976C31.3867 116.527 31.8359 115.82 32.0938 114.922C32.418 114.019 32.8008 112.09 33.1875 109.004L34.0898 102.449L35.1172 95.2458C35.4375 92.9333 35.6328 91.3903 35.6328 90.6169C35.6953 90.2341 35.6953 89.9763 35.6953 89.7184C35.6953 88.3669 35.375 87.4684 34.7305 87.0192C34.3437 86.695 33.7031 86.5036 32.8008 86.3747C32.0313 86.2458 30.6797 86.1833 28.8164 86.1833ZM11.7148 106.625H24.3789C24.3164 107.332 24.25 107.785 24.1875 108.043C24.125 108.297 24.0586 108.554 23.9297 108.683C23.8672 108.812 23.7383 108.875 23.4805 108.941C23.3516 108.941 22.9648 109.004 22.4531 109.004H9.85156C9.98047 108.492 10.043 108.105 10.043 107.914C10.1094 107.398 10.1719 107.078 10.3008 106.949C10.4297 106.82 10.5586 106.691 10.75 106.691C10.8789 106.625 11.1992 106.625 11.7148 106.625Z" fill="#004AAD"/>
<path d="M40.7105 86.1833L39.4879 95.2458C39.3589 96.4059 39.1011 98.4606 38.5855 101.675C38.1363 104.828 37.816 107.269 37.5582 109.004C37.2379 111.062 37.0425 112.543 36.98 113.312C36.98 113.761 36.9175 114.215 36.9175 114.597C36.9175 115.371 37.0425 116.011 37.2379 116.527C37.6246 117.172 38.3316 117.621 39.4879 117.812C40.3238 117.941 41.8004 118.07 43.9879 118.07H60.9605C63.2105 118.07 64.7535 117.941 65.5894 117.812C66.8121 117.554 67.7105 117.105 68.2261 116.398C68.6089 115.82 68.9957 114.922 69.2535 113.699C69.4449 112.863 69.7027 111.32 69.9605 109.004L71.8902 95.2458C72.2105 92.8669 72.4058 91.3239 72.4683 90.5544V89.7184C72.4683 88.82 72.3394 88.1091 72.0816 87.6599C71.7613 87.0192 71.0543 86.5661 69.898 86.4411C69.0621 86.2458 67.1324 86.1833 64.0464 86.1833L62.7613 95.2458L60.8316 109.004H48.9371C48.1011 109.004 47.5894 109.004 47.3316 108.941C47.1363 108.812 47.0113 108.75 46.8824 108.621C46.8824 108.492 46.816 108.234 46.816 107.976C46.8824 107.718 46.9449 107.332 47.0113 106.691L48.6168 95.2458C48.9371 92.8044 49.1324 91.3239 49.1324 90.8122C49.2613 90.2966 49.2613 89.8474 49.2613 89.4606C49.2613 88.5622 49.1324 87.9177 48.8082 87.5309C48.4254 86.8903 47.5894 86.5036 46.2379 86.3747C45.4019 86.2458 43.5386 86.1833 40.7105 86.1833Z" fill="#004AAD"/>
<path d="M85.7775 86.2458C83.4611 86.2458 81.8556 86.2458 80.9532 86.3747C79.797 86.5036 78.9611 86.8903 78.3829 87.402C77.8048 87.9177 77.3556 88.8825 77.0314 90.2341C76.9025 91.0036 76.6486 92.6755 76.2618 95.2458C76.1954 95.7614 75.9415 97.6911 75.4259 101.16C74.9103 104.57 74.59 107.207 74.3322 109.004C73.9454 111.578 73.754 113.25 73.6915 114.148V114.597C73.6915 115.5 73.8829 116.207 74.1407 116.656C74.5275 117.172 75.1681 117.554 76.0704 117.812C76.9689 117.941 78.9611 118.07 82.047 118.07H96.4493C99.0861 118.07 100.82 118.008 101.656 117.941C102.942 117.812 103.906 117.492 104.484 117.043C105.129 116.527 105.578 115.629 105.836 114.468C106.094 113.57 106.348 111.769 106.734 109.004H83.4611L85.0704 97.6247C85.1993 96.9841 85.2618 96.5309 85.2618 96.3395C85.3907 95.9528 85.5197 95.6989 85.6486 95.57C85.7775 95.4411 85.9689 95.3747 86.2267 95.3747C86.4845 95.2458 87.1251 95.2458 88.0275 95.2458H99.5353C101.977 95.2458 103.586 95.1833 104.422 95.1833C105.965 95.0544 107.121 94.6677 107.762 94.0895C108.344 93.5739 108.793 92.6755 109.051 91.4528C109.305 90.5544 109.563 88.82 109.949 86.2458H85.7775Z" fill="#004AAD"/>
<path d="M116.504 73.0036L115.286 82.0661L114.708 86.1833L113.418 95.2458L113.098 97.5622L111.813 106.625L111.493 109.004L110.208 118.008C113.036 118.008 114.899 117.941 115.797 117.879C117.215 117.621 118.176 117.172 118.758 116.527C119.27 115.883 119.59 114.984 119.848 113.699C120.043 112.863 120.301 111.32 120.622 109.004L120.942 106.625H135.086L134.766 109.004L133.477 118.008C136.887 118.008 139.071 117.879 139.973 117.683C141.067 117.425 141.836 116.914 142.286 116.14C142.672 115.5 142.993 114.597 143.188 113.379C143.379 112.605 143.637 111.129 143.895 109.004L144.215 106.625C144.278 106.175 144.278 105.789 144.278 105.406C144.278 104.761 144.215 104.246 144.024 103.797C143.829 103.285 143.571 102.898 143.188 102.64C142.93 102.383 142.543 102.191 142.028 102.062C142.61 101.871 143.122 101.613 143.508 101.355C143.895 101.097 144.153 100.777 144.407 100.39C144.731 100.004 144.985 99.5544 145.114 99.0388C145.309 98.5895 145.438 98.0739 145.5 97.5622L147.11 86.1169C144.407 86.1169 142.61 86.1833 141.708 86.3122C140.551 86.4411 139.715 86.695 139.071 87.1481C138.43 87.6599 137.915 88.5622 137.528 89.9763C137.336 90.8122 137.079 92.5466 136.692 95.1833L136.372 97.5622H122.227L122.551 95.2458L123.836 86.1833L124.415 82.0661C124.672 80.2692 124.801 78.9802 124.864 78.3395C124.993 77.5661 124.993 76.988 124.993 76.5388C124.993 75.5114 124.864 74.8044 124.477 74.3513C124.157 73.7731 123.45 73.3903 122.293 73.2614C121.458 73.0661 119.528 73.0036 116.504 73.0036Z" fill="#004AAD"/>
<path d="M162.796 73.0661C160.222 73.0661 158.421 73.0661 157.523 73.195C156.495 73.3239 155.659 73.5153 155.081 73.902C154.308 74.3513 153.73 75.2536 153.343 76.6013C153.152 77.4372 152.831 79.238 152.378 82.0661L149.359 103.992L147.367 118.07C149.937 118.07 151.671 118.008 152.507 117.941C154.05 117.75 155.144 117.3 155.788 116.656C156.3 116.078 156.687 115.175 156.945 113.957C157.202 113.054 157.46 111.449 157.781 109.07L160.031 92.6755L162.796 73.0661Z" fill="#004AAD"/>
<path d="M190.824 86.1833H165.945V87.277C165.945 88.945 166.008 90.2341 166.008 91.0036C166.137 92.4177 166.395 93.3825 166.781 93.9606C167.231 94.5388 168 94.9255 169.16 95.1169C169.93 95.1833 171.535 95.2458 173.852 95.2458H187.996C187.93 95.9528 187.867 96.4059 187.801 96.6599C187.801 96.9177 187.738 97.113 187.61 97.2419C187.481 97.3669 187.289 97.4958 187.031 97.5622C186.903 97.5622 186.516 97.6247 186.004 97.6247H172.567C170.188 97.6247 168.516 97.6911 167.617 97.82C166.524 97.9489 165.688 98.3317 165.11 98.9099C164.594 99.4255 164.145 100.453 163.82 101.996C163.695 102.769 163.438 104.312 163.113 106.625L162.731 109.004C162.406 111.578 162.215 113.312 162.153 114.215V114.597C162.153 115.629 162.278 116.336 162.664 116.847C163.051 117.3 163.695 117.621 164.594 117.812C165.492 117.941 167.488 118.07 170.574 118.07H184.524C187.738 118.07 189.797 117.941 190.695 117.812C191.594 117.621 192.301 117.363 192.817 116.976C193.395 116.527 193.844 115.82 194.102 114.922C194.426 114.019 194.809 112.09 195.195 109.004L196.098 102.449L197.125 95.2458C197.445 92.9333 197.641 91.3903 197.641 90.6169C197.703 90.2341 197.703 89.9763 197.703 89.7184C197.703 88.3669 197.383 87.4684 196.738 87.0192C196.352 86.695 195.711 86.5036 194.809 86.3747C194.039 86.2458 192.688 86.1833 190.824 86.1833ZM173.723 106.625H186.387C186.324 107.332 186.258 107.785 186.195 108.043C186.133 108.297 186.067 108.554 185.938 108.683C185.875 108.812 185.746 108.875 185.488 108.941C185.36 108.941 184.973 109.004 184.461 109.004H171.86C171.988 108.492 172.051 108.105 172.051 107.914C172.117 107.398 172.18 107.078 172.309 106.949C172.438 106.82 172.567 106.691 172.758 106.691C172.887 106.625 173.207 106.625 173.723 106.625Z" fill="#004AAD"/>
<path d="M202.136 95.3122L201.816 97.6247L200.531 106.691L200.211 109.07L198.926 118.07C201.687 118.07 203.488 118.008 204.324 117.941C205.48 117.75 206.383 117.425 206.894 117.043C207.539 116.527 208.054 115.758 208.308 114.664C208.566 113.761 208.953 111.898 209.34 109.07L209.66 106.691L210.945 97.6247C211.074 96.9177 211.14 96.4684 211.14 96.277C211.269 95.8903 211.461 95.6325 211.59 95.5036C211.781 95.3747 211.976 95.3122 212.23 95.3122C212.359 95.2458 212.554 95.2458 212.746 95.2458C213.004 95.2458 213.324 95.2458 213.648 95.3122H225.41L225.09 97.6247L223.804 106.691L223.484 109.07L222.195 118.07C225.347 118.07 227.406 117.941 228.304 117.812C229.398 117.554 230.168 117.172 230.683 116.59C231.199 116.078 231.519 115.242 231.777 114.215C232.035 113.379 232.289 111.64 232.613 109.07L232.933 106.691L234.219 97.6247L234.539 95.3122C234.926 92.4841 235.121 90.6169 235.121 89.7809V89.3317C235.054 88.238 234.734 87.4684 234.219 87.0817C233.832 86.695 233.191 86.5036 232.355 86.3747C231.582 86.2458 230.363 86.2458 228.625 86.2458H210.562C208.89 86.2458 207.668 86.2458 206.894 86.3747C205.867 86.5036 205.097 86.7614 204.582 87.1481C203.937 87.5974 203.426 88.4333 203.039 89.652C202.847 90.488 202.523 92.3552 202.136 95.3122Z" fill="#004AAD"/>
<path d="M263.987 82.1325L263.409 86.1833H248.428C245.983 86.1833 244.249 86.2458 243.35 86.4411C242.319 86.5661 241.483 86.9528 240.971 87.4684C240.456 87.9841 240.069 88.82 239.749 89.9763C239.553 90.8122 239.3 92.5466 238.913 95.2458C238.655 96.7888 238.335 99.0388 237.885 102.125C237.499 105.211 237.178 107.461 236.983 109.004C236.725 111.062 236.534 112.414 236.405 113.183C236.405 113.699 236.343 114.215 236.343 114.597C236.343 115.629 236.596 116.398 236.983 116.914C237.37 117.3 238.01 117.621 238.913 117.812C239.811 117.941 241.741 118.07 244.698 118.07H259.1C261.991 118.07 263.921 118.008 264.823 117.879C265.784 117.683 266.491 117.425 267.007 117.105C267.714 116.59 268.229 115.629 268.55 114.34C268.807 113.504 269.065 111.707 269.385 109.004L269.706 106.625L274.401 73.0661C271.635 73.0661 269.835 73.0661 268.936 73.195C267.714 73.3239 266.815 73.7106 266.237 74.2224C265.721 74.6755 265.272 75.5114 264.948 76.6677C264.694 77.5661 264.37 79.3669 263.987 82.1325ZM250.229 95.2458H262.12L260.577 106.625C260.448 107.269 260.385 107.656 260.257 107.914C260.194 108.297 260.065 108.554 259.87 108.683C259.741 108.812 259.55 108.875 259.292 108.941C259.034 108.941 258.522 109.004 257.62 109.004H246.112L247.721 97.6247C247.85 96.9841 247.913 96.5309 247.913 96.3395C248.042 95.9528 248.104 95.7614 248.233 95.6325C248.362 95.4411 248.62 95.3122 248.878 95.3122C249.135 95.2458 249.585 95.2458 250.229 95.2458Z" fill="#004AAD"/>
</svg>
