<svg width="182" height="100" viewBox="0 0 182 100" fill="none" xmlns="http://www.w3.org/2000/svg">
<path d="M181.504 24.7539C181.504 24.7855 181.504 24.8144 181.504 24.8486C181.496 27.74 180.988 30.5155 180.067 33.0912C179.944 33.4384 179.812 33.7778 179.67 34.1172C178.331 37.3979 176.305 40.3261 173.777 42.7254C171.243 45.1248 168.207 46.9901 164.84 48.1555C163.977 48.4528 163.09 48.7054 162.188 48.908C162.167 48.9132 162.149 48.9159 162.13 48.9211C161.123 49.1448 160.099 49.3052 159.052 49.3999C158.3 49.4736 157.529 49.5078 156.755 49.5078C154.222 49.5078 151.775 49.129 149.47 48.4186C148.886 48.2397 148.313 48.0398 147.75 47.8188C142.662 45.8272 138.392 42.2071 135.587 37.5952C135.122 36.8296 134.695 36.0377 134.314 35.2169C132.901 32.1993 132.083 28.8475 132.004 25.3117C132.001 25.1249 131.999 24.9433 131.999 24.7565C131.999 24.5697 132.001 24.3882 132.004 24.2041C132.157 17.1375 135.277 10.7997 140.165 6.38513C140.554 6.0326 140.954 5.69321 141.365 5.36699C141.612 5.16967 141.859 4.98025 142.117 4.79346C142.964 4.16994 143.856 3.59904 144.78 3.08602C148.331 1.11812 152.412 0 156.755 0C158.618 0 160.436 0.207839 162.18 0.59984C163.088 0.802418 163.972 1.05498 164.84 1.3549C170.654 3.36226 175.484 7.47432 178.423 12.7834C179.005 13.8279 179.507 14.9171 179.928 16.0483C179.96 16.1273 179.989 16.2062 180.017 16.2851V16.2877C180.215 16.8244 180.394 17.3664 180.552 17.9189C181.075 19.7447 181.393 21.66 181.48 23.6305C181.496 24.0015 181.504 24.3777 181.504 24.7539Z" fill="#004AAD"/>
<path d="M143.5 43C144.167 43 144.167 42 143.5 42C142.833 42 142.833 43 143.5 43Z" fill="#004AAD"/>
<path d="M141.548 39C141.515 39 141.482 39 141.45 39C141.215 39 140.989 39.231 141 39.4983C141.012 39.769 141.197 40 141.45 40C141.482 40 141.515 40 141.548 40C141.783 40 142.009 39.769 142 39.4983C141.988 39.231 141.8 39 141.548 39Z" fill="#004AAD"/>
<path d="M143.499 39C144.167 39 144.167 38 143.499 38C142.835 38 142.832 39 143.499 39Z" fill="#004AAD"/>
<path d="M138.5 37C139.167 37 139.167 36 138.5 36C137.833 36.0033 137.833 37 138.5 37Z" fill="#004AAD"/>
<path d="M141 36.4523C141 36.485 141 36.5177 141 36.5505C141 36.7854 141.228 37.0114 141.5 36.9996C141.772 36.9877 142 36.8033 142 36.5505C142 36.5177 142 36.485 142 36.4523C142 36.2174 141.772 35.9913 141.5 36.0003C141.228 36.0122 141 36.1995 141 36.4523Z" fill="#004AAD"/>
<path d="M134.499 32C135.167 32 135.167 31 134.499 31C133.834 31 133.834 32 134.499 32Z" fill="#004AAD"/>
<path d="M180 15.8838C179.751 15.7766 179.498 15.6799 179.244 15.5936C175.868 14.4221 172.053 14.6731 168.783 16.2761C167.617 16.8461 166.536 17.6149 165.399 18.4282C163.337 19.8899 161.209 21.404 158.414 21.8302C154.105 22.484 150.264 21.2419 147.311 18.2399C144.147 15.0314 142.204 9.87992 142 4.6971C142.854 4.07474 143.747 3.5073 144.678 3C144.519 7.55262 145.894 13.0257 149.217 16.399C151.581 18.8021 154.536 19.7487 158.007 19.2205C160.17 18.8963 161.952 17.628 163.842 16.2865C165.021 15.4498 166.24 14.5816 167.601 13.9148C170.99 12.2543 174.871 11.8124 178.485 12.6361C179.069 13.6768 179.577 14.7594 180 15.8838Z" fill="white"/>
<path d="M162.128 48.9185C161.123 49.1421 160.096 49.3052 159.052 49.3999C158.828 49.0974 158.623 48.7869 158.442 48.4791C157.805 47.411 157.366 46.2824 156.942 45.1932C156.513 44.0908 156.108 43.049 155.532 42.1387C154.487 40.4865 153.09 39.0738 151.486 38.053C146.666 34.9827 140.878 35.9562 135.585 37.5899C135.119 36.8244 134.693 36.0325 134.311 35.2143C140.154 33.3621 147.034 32.073 152.909 35.8167C154.84 37.0454 156.521 38.7449 157.768 40.7233C158.481 41.852 158.949 43.0622 159.407 44.2303C159.812 45.2642 160.191 46.2429 160.717 47.119C161.094 47.7478 161.572 48.3818 162.128 48.9185Z" fill="white"/>
<path d="M1.82812 45V3.75H12.7266C15.0078 3.75 16.8125 4.25781 18.1406 5.27344C19.4844 6.28906 20.4453 7.73438 21.0234 9.60938C21.6016 11.4844 21.8906 13.7187 21.8906 16.3125C21.8906 18.8125 21.6484 20.9922 21.1641 22.8516C20.6797 24.6953 19.8125 26.125 18.5625 27.1406C17.3281 28.1562 15.5703 28.6641 13.2891 28.6641H9.9375V45H1.82812ZM9.9375 21.2578H10.4062C11.9375 21.2578 12.875 20.8281 13.2188 19.9688C13.5625 19.1094 13.7344 17.8438 13.7344 16.1719C13.7344 14.6094 13.5625 13.4062 13.2188 12.5625C12.8906 11.7031 12.1016 11.2734 10.8516 11.2734H9.9375V21.2578ZM27.2475 45L31.2319 3.75H45.2241L49.1381 45H41.3334L40.7475 38.3438H35.7787L35.2631 45H27.2475ZM36.3647 31.7578H40.1147L38.31 10.7812H37.935L36.3647 31.7578ZM56.2294 45V3.75H67.5731C70.5419 3.75 72.7762 4.57812 74.2762 6.23438C75.7762 7.875 76.5262 10.2813 76.5262 13.4531V32.7656C76.5262 36.6719 75.8387 39.6875 74.4637 41.8125C73.1044 43.9375 70.7137 45 67.2919 45H56.2294ZM64.5262 37.7109H65.9559C67.4716 37.7109 68.2294 36.9766 68.2294 35.5078V14.2266C68.2294 12.8516 68.0419 11.9688 67.6669 11.5781C67.3075 11.1719 66.5653 10.9688 65.4403 10.9688H64.5262V37.7109ZM84.4613 45V3.75H100.961V11.7188H92.8519V19.7578H100.633V27.5156H92.8519V36.9609H101.5V45H84.4613ZM108.802 45V3.75H117.052V37.9688H125.537V45H108.802ZM0.703125 95L4.6875 53.75H18.6797L22.5938 95H14.7891L14.2031 88.3438H9.23438L8.71875 95H0.703125ZM9.82031 81.7578H13.5703L11.7656 60.7812H11.3906L9.82031 81.7578ZM34.6641 95.375C31.2266 95.375 28.6953 94.4141 27.0703 92.4922C25.4453 90.5547 24.6328 87.7109 24.6328 83.9609V53.75H32.6484V83.6328C32.6484 84.3203 32.6875 84.9844 32.7656 85.625C32.8438 86.25 33.0234 86.7656 33.3047 87.1719C33.5859 87.5781 34.0391 87.7812 34.6641 87.7812C35.3047 87.7812 35.7656 87.5859 36.0469 87.1953C36.3281 86.7891 36.5 86.2656 36.5625 85.625C36.6406 84.9844 36.6797 84.3203 36.6797 83.6328V53.75H44.6953V83.9609C44.6953 87.7109 43.8828 90.5547 42.2578 92.4922C40.6328 94.4141 38.1016 95.375 34.6641 95.375ZM57.4688 95.375C54.4844 95.375 52.0781 94.4453 50.25 92.5859C48.4375 90.7266 47.5312 88.125 47.5312 84.7812V65.75C47.5312 61.75 48.3203 58.6875 49.8984 56.5625C51.4922 54.4375 54.0781 53.375 57.6562 53.375C59.6094 53.375 61.3438 53.7344 62.8594 54.4531C64.3906 55.1719 65.5938 56.25 66.4688 57.6875C67.3438 59.1094 67.7812 60.9062 67.7812 63.0781V70.2031H59.5781V64.1094C59.5781 62.875 59.4219 62.0469 59.1094 61.625C58.7969 61.1875 58.3125 60.9688 57.6562 60.9688C56.8906 60.9688 56.375 61.25 56.1094 61.8125C55.8438 62.3594 55.7109 63.0938 55.7109 64.0156V84.6641C55.7109 85.8047 55.875 86.6094 56.2031 87.0781C56.5469 87.5469 57.0312 87.7812 57.6562 87.7812C58.3594 87.7812 58.8516 87.4922 59.1328 86.9141C59.4297 86.3359 59.5781 85.5859 59.5781 84.6641V77.2344H67.875V85.0391C67.875 88.6641 66.9609 91.2969 65.1328 92.9375C63.3047 94.5625 60.75 95.375 57.4688 95.375ZM70.6406 95V53.75H78.7969V70.2734L82.6406 53.75H90.9375L86.3203 72.6406L91.8984 95H83.3438L78.8438 75.0312V95H70.6406ZM93.3281 95V53.75H101.578V87.9688H110.062V95H93.3281ZM111.281 95L115.266 53.75H129.258L133.172 95H125.367L124.781 88.3438H119.812L119.297 95H111.281ZM120.398 81.7578H124.148L122.344 60.7812H121.969L120.398 81.7578ZM135.703 95V53.75H144.188L147.984 73.5078V53.75H155.953V95H147.891L143.766 74.375V95H135.703ZM159.609 95V53.75H170.953C173.922 53.75 176.156 54.5781 177.656 56.2344C179.156 57.875 179.906 60.2812 179.906 63.4531V82.7656C179.906 86.6719 179.219 89.6875 177.844 91.8125C176.484 93.9375 174.094 95 170.672 95H159.609ZM167.906 87.7109H169.336C170.852 87.7109 171.609 86.9766 171.609 85.5078V64.2266C171.609 62.8516 171.422 61.9688 171.047 61.5781C170.688 61.1719 169.945 60.9688 168.82 60.9688H167.906V87.7109Z" fill="#004AAD"/>
</svg>
